<svg width="124" height="125" viewBox="0 0 124 125" fill="none" xmlns="http://www.w3.org/2000/svg">
<rect y="0.5" width="124" height="124" rx="62" fill="#D9D9D9"/>
<path d="M57.7272 98.3754H66.3373C69.6173 98.3754 71.7356 96.052 71.1206 93.2162L69.7197 87.0322H54.3447L52.9439 93.2162C52.3289 95.8812 54.6522 98.3754 57.7272 98.3754Z" stroke="#292D32" stroke-width="5.125" stroke-linecap="round" stroke-linejoin="round"/>
<path d="M69.7203 86.9981L75.6311 81.7363C78.9453 78.798 79.0819 76.7478 76.4511 73.4336L66.0302 60.2114C63.8436 57.4439 60.2561 57.4439 58.0695 60.2114L47.6486 73.4336C45.0178 76.7478 45.0177 78.9005 48.4686 81.7363L54.3795 86.9981" stroke="#292D32" stroke-width="5.125" stroke-linecap="round" stroke-linejoin="round"/>
<path d="M62.0332 59.4937V68.1379" stroke="#292D32" stroke-width="5.125" stroke-linecap="round" stroke-linejoin="round"/>
<path d="M63.7757 38.583H60.359C58.4799 38.583 56.9424 37.0455 56.9424 35.1663V31.7497C56.9424 29.8705 58.4799 28.333 60.359 28.333H63.7757C65.6549 28.333 67.1924 29.8705 67.1924 31.7497V35.1663C67.1924 37.0455 65.6549 38.583 63.7757 38.583Z" stroke="#292D32" stroke-width="5.125" stroke-linecap="round" stroke-linejoin="round"/>
<path d="M32.1715 69.9138H35.5882C37.4674 69.9138 39.0049 68.3763 39.0049 66.4971V63.0804C39.0049 61.2013 37.4674 59.6636 35.5882 59.6636H32.1715C30.2924 59.6636 28.7549 61.2013 28.7549 63.0804V66.4971C28.7549 68.3763 30.2924 69.9138 32.1715 69.9138Z" stroke="#292D32" stroke-width="5.125" stroke-linecap="round" stroke-linejoin="round"/>
<path d="M91.8265 69.9138H88.4098C86.5307 69.9138 84.9932 68.3763 84.9932 66.4971V63.0804C84.9932 61.2013 86.5307 59.6636 88.4098 59.6636H91.8265C93.7057 59.6636 95.2432 61.2013 95.2432 63.0804V66.4971C95.2432 68.3763 93.7057 69.9138 91.8265 69.9138Z" stroke="#292D32" stroke-width="5.125" stroke-linecap="round" stroke-linejoin="round"/>
<path d="M56.9443 33.6631C43.9268 35.2006 33.8135 46.2364 33.8135 59.6639" stroke="#292D32" stroke-width="5.125" stroke-linecap="round" stroke-linejoin="round"/>
<path d="M90.1865 59.6639C90.1865 46.2705 80.1415 35.2689 67.1924 33.6631" stroke="#292D32" stroke-width="5.125" stroke-linecap="round" stroke-linejoin="round"/>
</svg>
