<svg
									className="cursor"
									width="203"
									height="53"
									viewBox="0 0 203 53"
									fill="none"
									xmlns="http://www.w3.org/2000/svg"
								>
									<rect
										x="0.072937"
										y="0.399139"
										width="202.738"
										height="51.925"
										rx="10"
										fill="white"
									/>
									<path
										d="M27.2377 32.3616V19.7919H31.9513C32.917 19.7919 33.7271 19.9597 34.3818 20.2952C35.0406 20.6307 35.5377 21.1013 35.8732 21.7069C36.2128 22.3083 36.3827 23.0101 36.3827 23.812C36.3827 24.6181 36.2108 25.3178 35.8671 25.9111C35.5275 26.5003 35.0263 26.9565 34.3634 27.2797C33.7005 27.5989 32.8863 27.7585 31.9207 27.7585H28.5634V25.8681H31.6138C32.1784 25.8681 32.6408 25.7904 33.0009 25.6349C33.3609 25.4753 33.6269 25.2441 33.7987 24.9413C33.9747 24.6345 34.0627 24.258 34.0627 23.812C34.0627 23.366 33.9747 22.9855 33.7987 22.6704C33.6228 22.3513 33.3548 22.1099 32.9947 21.9462C32.6347 21.7785 32.1703 21.6946 31.6015 21.6946H29.5147V32.3616H27.2377ZM33.7312 26.666L36.843 32.3616H34.302L31.2455 26.666H33.7312ZM42.4189 32.5458C41.4737 32.5458 40.6575 32.3494 39.9701 31.9566C39.2867 31.5597 38.761 30.9991 38.3927 30.2749C38.0244 29.5465 37.8403 28.6893 37.8403 27.7032C37.8403 26.7335 38.0244 25.8824 38.3927 25.15C38.765 24.4135 39.2847 23.8407 39.9516 23.4315C40.6186 23.0182 41.4021 22.8116 42.3023 22.8116C42.8833 22.8116 43.4316 22.9057 43.9472 23.0939C44.4668 23.2781 44.9251 23.5645 45.322 23.9532C45.723 24.3419 46.038 24.837 46.2672 25.4385C46.4963 26.0359 46.6109 26.7478 46.6109 27.5743V28.2556H38.8837V26.7581H44.4811C44.4771 26.3325 44.385 25.954 44.205 25.6226C44.0249 25.2871 43.7733 25.0232 43.45 24.8309C43.1309 24.6386 42.7585 24.5424 42.333 24.5424C41.8788 24.5424 41.4799 24.6529 41.1362 24.8738C40.7925 25.0907 40.5245 25.3771 40.3322 25.7331C40.1439 26.085 40.0478 26.4716 40.0437 26.8931V28.2004C40.0437 28.7487 40.1439 29.2192 40.3444 29.612C40.5449 30.0007 40.8252 30.2994 41.1853 30.5081C41.5454 30.7127 41.9668 30.815 42.4496 30.815C42.7729 30.815 43.0654 30.77 43.3273 30.6799C43.5892 30.5858 43.8162 30.4488 44.0086 30.2687C44.2009 30.0887 44.3461 29.8657 44.4443 29.5997L46.5188 29.833C46.3879 30.3813 46.1383 30.86 45.77 31.2691C45.4059 31.6742 44.9394 31.9893 44.3707 32.2143C43.8019 32.4353 43.1513 32.5458 42.4189 32.5458ZM52.5904 36.0933C51.7925 36.0933 51.1071 35.9848 50.5343 35.768C49.9615 35.5552 49.5012 35.2688 49.1534 34.9087C48.8056 34.5486 48.5642 34.1497 48.4291 33.7119L50.43 33.227C50.52 33.4112 50.6509 33.5932 50.8228 33.7733C50.9946 33.9574 51.2258 34.1088 51.5163 34.2274C51.8109 34.3502 52.1812 34.4116 52.6272 34.4116C53.2573 34.4116 53.779 34.2581 54.1923 33.9513C54.6055 33.6485 54.8122 33.1493 54.8122 32.4537V30.6677H54.7017C54.5871 30.8968 54.4194 31.1321 54.1984 31.3735C53.9816 31.6149 53.6931 31.8174 53.333 31.9811C52.977 32.1448 52.529 32.2266 51.9889 32.2266C51.2647 32.2266 50.608 32.0568 50.0188 31.7172C49.4336 31.3735 48.9672 30.862 48.6194 30.1828C48.2757 29.4995 48.1038 28.6443 48.1038 27.6173C48.1038 26.5821 48.2757 25.7085 48.6194 24.9966C48.9672 24.2805 49.4357 23.7384 50.0249 23.3701C50.6141 22.9978 51.2708 22.8116 51.995 22.8116C52.5474 22.8116 53.0016 22.9057 53.3576 23.0939C53.7176 23.2781 54.0041 23.5011 54.2168 23.7629C54.4296 24.0207 54.5912 24.2642 54.7017 24.4933H54.8244V22.9344H57.0156V32.5151C57.0156 33.3211 56.8232 33.9881 56.4386 34.5159C56.054 35.0437 55.5282 35.4386 54.8613 35.7005C54.1943 35.9623 53.4374 36.0933 52.5904 36.0933ZM52.6088 30.4835C53.0793 30.4835 53.4803 30.369 53.8118 30.1398C54.1432 29.9107 54.3948 29.5813 54.5667 29.1517C54.7385 28.7221 54.8244 28.2065 54.8244 27.605C54.8244 27.0117 54.7385 26.4921 54.5667 26.0461C54.3989 25.6001 54.1493 25.2544 53.8179 25.0089C53.4906 24.7593 53.0875 24.6345 52.6088 24.6345C52.1137 24.6345 51.7004 24.7633 51.369 25.0211C51.0376 25.2789 50.788 25.6328 50.6202 26.0829C50.4525 26.5289 50.3686 27.0363 50.3686 27.605C50.3686 28.182 50.4525 28.6873 50.6202 29.121C50.7921 29.5506 51.0437 29.8862 51.3751 30.1276C51.7107 30.3649 52.1219 30.4835 52.6088 30.4835ZM59.2926 32.3616V22.9344H61.5144V32.3616H59.2926ZM60.4096 21.5964C60.0577 21.5964 59.7549 21.4798 59.5013 21.2465C59.2476 21.0092 59.1207 20.7248 59.1207 20.3934C59.1207 20.0579 59.2476 19.7735 59.5013 19.5403C59.7549 19.303 60.0577 19.1843 60.4096 19.1843C60.7656 19.1843 61.0684 19.303 61.318 19.5403C61.5717 19.7735 61.6985 20.0579 61.6985 20.3934C61.6985 20.7248 61.5717 21.0092 61.318 21.2465C61.0684 21.4798 60.7656 21.5964 60.4096 21.5964ZM71.2501 25.4262L69.2247 25.6472C69.1674 25.4426 69.0671 25.2503 68.9239 25.0702C68.7848 24.8902 68.5966 24.7449 68.3593 24.6345C68.122 24.524 67.8314 24.4687 67.4877 24.4687C67.0254 24.4687 66.6367 24.569 66.3216 24.7695C66.0106 24.97 65.8572 25.2298 65.8613 25.549C65.8572 25.8231 65.9574 26.0461 66.162 26.2179C66.3707 26.3898 66.7144 26.531 67.1931 26.6414L68.8012 26.9851C69.6932 27.1775 70.356 27.4823 70.7897 27.8996C71.2276 28.317 71.4485 28.8632 71.4526 29.5384C71.4485 30.1317 71.2746 30.6554 70.9309 31.1096C70.5913 31.5597 70.1187 31.9115 69.5131 32.1652C68.9076 32.4189 68.212 32.5458 67.4264 32.5458C66.2725 32.5458 65.3437 32.3043 64.6399 31.8215C63.9361 31.3346 63.5168 30.6574 63.3817 29.79L65.5483 29.5813C65.6465 30.0069 65.8552 30.3281 66.1743 30.5449C66.4935 30.7618 66.9088 30.8702 67.4202 30.8702C67.9481 30.8702 68.3716 30.7618 68.6907 30.5449C69.0139 30.3281 69.1756 30.0601 69.1756 29.7409C69.1756 29.4708 69.0712 29.2479 68.8626 29.0719C68.658 28.896 68.3388 28.7609 67.9051 28.6668L66.2971 28.3293C65.3928 28.141 64.7238 27.8239 64.2901 27.3779C63.8564 26.9279 63.6415 26.3591 63.6456 25.6717C63.6415 25.0907 63.7991 24.5874 64.1182 24.1619C64.4415 23.7322 64.8895 23.4008 65.4624 23.1676C66.0393 22.9303 66.7042 22.8116 67.4571 22.8116C68.5618 22.8116 69.4313 23.0469 70.0655 23.5174C70.7038 23.988 71.0987 24.6242 71.2501 25.4262ZM77.9922 22.9344V24.6529H72.5727V22.9344H77.9922ZM73.9107 20.6757H76.1325V29.5261C76.1325 29.8248 76.1775 30.0539 76.2675 30.2135C76.3616 30.369 76.4844 30.4754 76.6358 30.5326C76.7872 30.5899 76.9549 30.6186 77.139 30.6186C77.2782 30.6186 77.405 30.6083 77.5196 30.5879C77.6382 30.5674 77.7282 30.549 77.7896 30.5326L78.164 32.2696C78.0453 32.3105 77.8755 32.3555 77.6546 32.4046C77.4377 32.4537 77.1718 32.4823 76.8567 32.4905C76.3002 32.5069 75.799 32.423 75.353 32.2389C74.907 32.0507 74.5531 31.7602 74.2912 31.3674C74.0334 30.9745 73.9066 30.4835 73.9107 29.8943V20.6757ZM83.9226 32.5458C82.9774 32.5458 82.1611 32.3494 81.4737 31.9566C80.7904 31.5597 80.2646 30.9991 79.8963 30.2749C79.5281 29.5465 79.344 28.6893 79.344 27.7032C79.344 26.7335 79.5281 25.8824 79.8963 25.15C80.2687 24.4135 80.7883 23.8407 81.4553 23.4315C82.1222 23.0182 82.9058 22.8116 83.8059 22.8116C84.387 22.8116 84.9353 22.9057 85.4508 23.0939C85.9705 23.2781 86.4287 23.5645 86.8256 23.9532C87.2266 24.3419 87.5417 24.837 87.7708 25.4385C87.9999 26.0359 88.1145 26.7478 88.1145 27.5743V28.2556H80.3873V26.7581H85.9848C85.9807 26.3325 85.8886 25.954 85.7086 25.6226C85.5286 25.2871 85.2769 25.0232 84.9537 24.8309C84.6345 24.6386 84.2622 24.5424 83.8366 24.5424C83.3825 24.5424 82.9835 24.6529 82.6398 24.8738C82.2961 25.0907 82.0281 25.3771 81.8358 25.7331C81.6476 26.085 81.5514 26.4716 81.5473 26.8931V28.2004C81.5473 28.7487 81.6476 29.2192 81.8481 29.612C82.0486 30.0007 82.3288 30.2994 82.6889 30.5081C83.049 30.7127 83.4704 30.815 83.9532 30.815C84.2765 30.815 84.569 30.77 84.8309 30.6799C85.0928 30.5858 85.3199 30.4488 85.5122 30.2687C85.7045 30.0887 85.8498 29.8657 85.948 29.5997L88.0224 29.833C87.8915 30.3813 87.6419 30.86 87.2737 31.2691C86.9095 31.6742 86.443 31.9893 85.8743 32.2143C85.3056 32.4353 84.655 32.5458 83.9226 32.5458ZM89.9941 32.3616V22.9344H92.1484V24.5056H92.2466C92.4185 23.9614 92.7131 23.542 93.1304 23.2474C93.5519 22.9487 94.0326 22.7993 94.5727 22.7993C94.6955 22.7993 94.8326 22.8055 94.984 22.8177C95.1394 22.8259 95.2683 22.8403 95.3706 22.8607V24.9045C95.2765 24.8718 95.1272 24.8431 94.9226 24.8186C94.7221 24.7899 94.5277 24.7756 94.3395 24.7756C93.9344 24.7756 93.5703 24.8636 93.247 25.0395C92.9279 25.2114 92.6762 25.4508 92.4921 25.7576C92.308 26.0645 92.2159 26.4184 92.2159 26.8194V32.3616H89.9941ZM111.561 19.7919V32.3616H109.536L103.613 23.7998H103.509V32.3616H101.232V19.7919H103.27L109.186 28.36H109.297V19.7919H111.561ZM118.057 32.5458C117.136 32.5458 116.338 32.3432 115.663 31.9381C114.988 31.5331 114.464 30.9664 114.092 30.238C113.723 29.5097 113.539 28.6586 113.539 27.6848C113.539 26.711 113.723 25.8579 114.092 25.1255C114.464 24.3931 114.988 23.8243 115.663 23.4192C116.338 23.0141 117.136 22.8116 118.057 22.8116C118.977 22.8116 119.775 23.0141 120.45 23.4192C121.125 23.8243 121.647 24.3931 122.015 25.1255C122.388 25.8579 122.574 26.711 122.574 27.6848C122.574 28.6586 122.388 29.5097 122.015 30.238C121.647 30.9664 121.125 31.5331 120.45 31.9381C119.775 32.3432 118.977 32.5458 118.057 32.5458ZM118.069 30.7659C118.568 30.7659 118.985 30.6288 119.321 30.3547C119.656 30.0764 119.906 29.7041 120.07 29.2376C120.237 28.7712 120.321 28.2515 120.321 27.6787C120.321 27.1018 120.237 26.5801 120.07 26.1136C119.906 25.6431 119.656 25.2687 119.321 24.9904C118.985 24.7122 118.568 24.5731 118.069 24.5731C117.557 24.5731 117.132 24.7122 116.792 24.9904C116.457 25.2687 116.205 25.6431 116.037 26.1136C115.874 26.5801 115.792 27.1018 115.792 27.6787C115.792 28.2515 115.874 28.7712 116.037 29.2376C116.205 29.7041 116.457 30.0764 116.792 30.3547C117.132 30.6288 117.557 30.7659 118.069 30.7659ZM126.135 32.3616L123.471 22.9344H125.736L127.393 29.5629H127.479L129.173 22.9344H131.413L133.107 29.5261H133.199L134.832 22.9344H137.103L134.433 32.3616H132.119L130.352 25.9909H130.223L128.455 32.3616H126.135Z"
										fill="red"
									/>
									<path
										d="M156.362 26.3616H171.484"
										stroke="red"
										stroke-width="1.62031"
										stroke-linecap="round"
										stroke-linejoin="round"
									/>
									<path
										d="M163.923 18.8002L171.484 26.3616L163.923 33.9231"
										stroke="red"
										stroke-width="1.62031"
										stroke-linecap="round"
										stroke-linejoin="round"
									/>
								</svg>
