<svg width="24" height="24" viewBox="0 0 24 24" fill="none" xmlns="http://www.w3.org/2000/svg">
<path fill-rule="evenodd" clip-rule="evenodd" d="M15.74 16.8214H10.24C9.826 16.8214 9.49 16.4865 9.49 16.074C9.49 15.6614 9.826 15.3266 10.24 15.3266H15.74C16.154 15.3266 16.49 15.6614 16.49 16.074C16.49 16.4865 16.154 16.8214 15.74 16.8214ZM8.5 9.53566C8.5 9.8117 8.275 10.0339 8 10.0339H4C3.723 10.0339 3.5 9.8117 3.5 9.53566V7.04431C3.5 6.77026 3.723 6.54604 4 6.54604H8C8.275 6.54604 8.5 6.77026 8.5 7.04431V9.53566ZM7.24 16.8214H4.24C3.826 16.8214 3.49 16.4865 3.49 16.074C3.49 15.6614 3.826 15.3266 4.24 15.3266H7.24C7.654 15.3266 7.99 15.6614 7.99 16.074C7.99 16.4865 7.654 16.8214 7.24 16.8214ZM21.5 4.05469H2.5C1.672 4.05469 1 4.72436 1 5.5495V18.5045C1 19.3306 1.672 19.9993 2.5 19.9993H21.5C22.329 19.9993 23 19.3306 23 18.5045V5.5495C23 4.72436 22.329 4.05469 21.5 4.05469Z" fill="#667483"/>
</svg>
