<svg width="53" height="53" viewBox="0 0 53 53" fill="none" xmlns="http://www.w3.org/2000/svg">
<path fill-rule="evenodd" clip-rule="evenodd" d="M24.0603 36.9941C24.0603 39.286 23.1499 41.484 21.5292 43.1046C19.9086 44.7253 17.7106 45.6357 15.4186 45.6357C13.1267 45.6357 10.9287 44.7253 9.30806 43.1046C7.68744 41.484 6.77698 39.286 6.77698 36.9941C6.77698 32.2195 15.4186 6.74823 15.4186 6.74823H19.7395L15.4186 28.3524C17.7106 28.3524 19.9086 29.2629 21.5292 30.8835C23.1499 32.5041 24.0603 34.7022 24.0603 36.9941ZM45.6645 36.9941C45.6645 39.286 44.754 41.484 43.1334 43.1046C41.5128 44.7253 39.3147 45.6357 37.0228 45.6357C34.7309 45.6357 32.5329 44.7253 30.9122 43.1046C29.2916 41.484 28.3811 39.286 28.3811 36.9941C28.3811 32.2195 37.0228 6.74823 37.0228 6.74823H41.3436L37.0228 28.3524C39.3147 28.3524 41.5128 29.2629 43.1334 30.8835C44.754 32.5041 45.6645 34.7022 45.6645 36.9941Z" fill="#DADDE6"/>
</svg>
