<svg width="201" height="63" viewBox="0 0 201 63" fill="none" xmlns="http://www.w3.org/2000/svg">
<path d="M16.9291 31.2998H26.0958" stroke="#0A65CC" stroke-width="1.5" stroke-linecap="round" stroke-linejoin="round"/>
<path d="M21.5125 35.883V26.7163" stroke="#0A65CC" stroke-width="1.5" stroke-linecap="round" stroke-linejoin="round"/>
<path d="M21.1459 48.3494C30.7648 48.3494 38.5625 40.5517 38.5625 30.9328C38.5625 21.3138 30.7648 13.5161 21.1459 13.5161C11.5269 13.5161 3.72919 21.3138 3.72919 30.9328C3.72919 40.5517 11.5269 48.3494 21.1459 48.3494Z" stroke="#0A65CC" stroke-width="1.5" stroke-linecap="round" stroke-linejoin="round"/>
<path d="M40.3959 50.1828L36.7292 46.5161" stroke="#0A65CC" stroke-width="1.5" stroke-linecap="round" stroke-linejoin="round"/>
<path d="M66.0827 31.0512L62.9292 31.3952C62.84 31.0767 62.6839 30.7773 62.4609 30.497C62.2443 30.2166 61.9513 29.9905 61.5818 29.8185C61.2123 29.6465 60.76 29.5605 60.2248 29.5605C59.5049 29.5605 58.8997 29.7165 58.4092 30.0287C57.925 30.3409 57.6861 30.7454 57.6925 31.2423C57.6861 31.6692 57.8422 32.0164 58.1607 32.2839C58.4856 32.5515 59.0208 32.7713 59.7661 32.9433L62.2698 33.4785C63.6586 33.7779 64.6907 34.2525 65.366 34.9023C66.0477 35.5521 66.3917 36.4026 66.3981 37.4538C66.3917 38.3776 66.1209 39.193 65.5858 39.9002C65.057 40.6009 64.3212 41.1488 63.3783 41.5438C62.4355 41.9388 61.3524 42.1363 60.1293 42.1363C58.3327 42.1363 56.8866 41.7604 55.7908 41.0087C54.695 40.2506 54.042 39.1962 53.8318 37.8456L57.2051 37.5207C57.358 38.1832 57.6829 38.6834 58.1798 39.021C58.6767 39.3587 59.3234 39.5275 60.1197 39.5275C60.9415 39.5275 61.6009 39.3587 62.0978 39.021C62.6011 38.6834 62.8527 38.2661 62.8527 37.7692C62.8527 37.3487 62.6903 37.0015 62.3654 36.7275C62.0469 36.4536 61.5499 36.2434 60.8746 36.0968L58.3709 35.5712C56.963 35.2782 55.9214 34.7845 55.2461 34.09C54.5708 33.3893 54.2363 32.5037 54.2427 31.4335C54.2363 30.5288 54.4816 29.7452 54.9785 29.0826C55.4818 28.4137 56.1794 27.8977 57.0713 27.5346C57.9696 27.1651 59.0048 26.9803 60.177 26.9803C61.8971 26.9803 63.2509 27.3466 64.2384 28.0793C65.2322 28.8119 65.847 29.8025 66.0827 31.0512ZM72.4041 37.2436L72.3945 33.0675H72.9488L78.2237 27.1714H82.266L75.7774 34.3958H75.0607L72.4041 37.2436ZM69.2506 41.8496V22.2787H72.7099V41.8496H69.2506ZM78.4627 41.8496L73.6846 35.1699L76.0163 32.7331L82.6004 41.8496H78.4627ZM84.5714 41.8496V27.1714H88.0307V41.8496H84.5714ZM86.3106 25.0882C85.7627 25.0882 85.2913 24.9066 84.8963 24.5435C84.5013 24.174 84.3038 23.7312 84.3038 23.2152C84.3038 22.6928 84.5013 22.25 84.8963 21.8869C85.2913 21.5174 85.7627 21.3326 86.3106 21.3326C86.8649 21.3326 87.3363 21.5174 87.7249 21.8869C88.1199 22.25 88.3174 22.6928 88.3174 23.2152C88.3174 23.7312 88.1199 24.174 87.7249 24.5435C87.3363 24.9066 86.8649 25.0882 86.3106 25.0882ZM95.0473 22.2787V41.8496H91.588V22.2787H95.0473ZM102.064 22.2787V41.8496H98.6045V22.2787H102.064ZM117.222 31.0512L114.069 31.3952C113.98 31.0767 113.823 30.7773 113.6 30.497C113.384 30.2166 113.091 29.9905 112.721 29.8185C112.352 29.6465 111.899 29.5605 111.364 29.5605C110.644 29.5605 110.039 29.7165 109.549 30.0287C109.064 30.3409 108.826 30.7454 108.832 31.2423C108.826 31.6692 108.982 32.0164 109.3 32.2839C109.625 32.5515 110.16 32.7713 110.906 32.9433L113.409 33.4785C114.798 33.7779 115.83 34.2525 116.506 34.9023C117.187 35.5521 117.531 36.4026 117.538 37.4538C117.531 38.3776 117.26 39.193 116.725 39.9002C116.197 40.6009 115.461 41.1488 114.518 41.5438C113.575 41.9388 112.492 42.1363 111.269 42.1363C109.472 42.1363 108.026 41.7604 106.93 41.0087C105.835 40.2506 105.182 39.1962 104.971 37.8456L108.345 37.5207C108.497 38.1832 108.822 38.6834 109.319 39.021C109.816 39.3587 110.463 39.5275 111.259 39.5275C112.081 39.5275 112.74 39.3587 113.237 39.021C113.741 38.6834 113.992 38.2661 113.992 37.7692C113.992 37.3487 113.83 37.0015 113.505 36.7275C113.186 36.4536 112.689 36.2434 112.014 36.0968L109.51 35.5712C108.103 35.2782 107.061 34.7845 106.386 34.09C105.71 33.3893 105.376 32.5037 105.382 31.4335C105.376 30.5288 105.621 29.7452 106.118 29.0826C106.621 28.4137 107.319 27.8977 108.211 27.5346C109.109 27.1651 110.144 26.9803 111.317 26.9803C113.037 26.9803 114.39 27.3466 115.378 28.0793C116.372 28.8119 116.987 29.8025 117.222 31.0512ZM129.287 32.2744V35.1221H120.476V32.2744H129.287ZM139.423 42.1363C137.952 42.1363 136.681 41.8305 135.611 41.2189C134.547 40.6009 133.728 39.7282 133.155 38.6005C132.581 37.4665 132.295 36.1319 132.295 34.5965C132.295 33.0867 132.581 31.7615 133.155 30.6212C133.734 29.4744 134.543 28.5825 135.582 27.9455C136.62 27.302 137.84 26.9803 139.242 26.9803C140.147 26.9803 141 27.1268 141.803 27.4199C142.612 27.7066 143.326 28.1525 143.943 28.7577C144.568 29.363 145.058 30.1338 145.415 31.0703C145.772 32.0004 145.95 33.109 145.95 34.3958V35.4566H133.919V33.1249H142.634C142.628 32.4623 142.485 31.873 142.204 31.357C141.924 30.8346 141.532 30.4237 141.029 30.1243C140.532 29.8248 139.952 29.6751 139.29 29.6751C138.583 29.6751 137.961 29.8471 137.426 30.1912C136.891 30.5288 136.474 30.9748 136.174 31.529C135.881 32.0769 135.732 32.6789 135.725 33.3351V35.3706C135.725 36.2242 135.881 36.9569 136.193 37.5685C136.506 38.1737 136.942 38.6388 137.503 38.9637C138.063 39.2822 138.719 39.4415 139.471 39.4415C139.975 39.4415 140.43 39.3714 140.838 39.2312C141.245 39.0847 141.599 38.8713 141.898 38.591C142.198 38.3107 142.424 37.9635 142.577 37.5494L145.807 37.9125C145.603 38.7662 145.214 39.5115 144.641 40.1486C144.074 40.7793 143.348 41.2699 142.462 41.6203C141.577 41.9643 140.564 42.1363 139.423 42.1363ZM157.774 32.2744V35.1221H148.963V32.2744H157.774ZM161.412 27.1714H164.871V42.6905C164.871 43.7481 164.671 44.6209 164.269 45.3089C163.868 45.997 163.288 46.5098 162.53 46.8475C161.772 47.1851 160.851 47.3539 159.768 47.3539C159.641 47.3539 159.523 47.3507 159.415 47.3444C159.307 47.3444 159.189 47.3412 159.061 47.3348V44.5158C159.157 44.5221 159.243 44.5253 159.319 44.5253C159.396 44.5317 159.475 44.5349 159.558 44.5349C160.221 44.5349 160.695 44.3724 160.982 44.0475C161.269 43.729 161.412 43.2607 161.412 42.6428V27.1714ZM163.132 25.0882C162.578 25.0882 162.103 24.9066 161.708 24.5435C161.32 24.174 161.125 23.7312 161.125 23.2152C161.125 22.6928 161.32 22.25 161.708 21.8869C162.103 21.5174 162.578 21.3326 163.132 21.3326C163.68 21.3326 164.148 21.5174 164.537 21.8869C164.932 22.25 165.129 22.6928 165.129 23.2152C165.129 23.7312 164.932 24.174 164.537 24.5435C164.148 24.9066 163.68 25.0882 163.132 25.0882ZM174.831 42.1363C173.398 42.1363 172.156 41.8209 171.104 41.1902C170.053 40.5595 169.238 39.6772 168.658 38.5432C168.085 37.4092 167.798 36.0841 167.798 34.5679C167.798 33.0516 168.085 31.7233 168.658 30.583C169.238 29.4426 170.053 28.5571 171.104 27.9264C172.156 27.2957 173.398 26.9803 174.831 26.9803C176.265 26.9803 177.507 27.2957 178.558 27.9264C179.609 28.5571 180.422 29.4426 180.995 30.583C181.575 31.7233 181.865 33.0516 181.865 34.5679C181.865 36.0841 181.575 37.4092 180.995 38.5432C180.422 39.6772 179.609 40.5595 178.558 41.1902C177.507 41.8209 176.265 42.1363 174.831 42.1363ZM174.85 39.365C175.628 39.365 176.277 39.1516 176.8 38.7248C177.322 38.2916 177.711 37.7118 177.966 36.9856C178.227 36.2593 178.357 35.4502 178.357 34.5583C178.357 33.66 178.227 32.8478 177.966 32.1215C177.711 31.3889 177.322 30.8059 176.8 30.3727C176.277 29.9395 175.628 29.7229 174.85 29.7229C174.054 29.7229 173.391 29.9395 172.863 30.3727C172.34 30.8059 171.948 31.3889 171.687 32.1215C171.432 32.8478 171.305 33.66 171.305 34.5583C171.305 35.4502 171.432 36.2593 171.687 36.9856C171.948 37.7118 172.34 38.2916 172.863 38.7248C173.391 39.1516 174.054 39.365 174.85 39.365ZM184.954 41.8496V22.2787H188.413V29.5987H188.556C188.735 29.2419 188.986 28.8629 189.311 28.4615C189.636 28.0538 190.076 27.7066 190.63 27.4199C191.184 27.1268 191.891 26.9803 192.751 26.9803C193.885 26.9803 194.908 27.2702 195.819 27.8499C196.736 28.4233 197.462 29.2738 197.998 30.4014C198.539 31.5226 198.81 32.8987 198.81 34.5296C198.81 36.1414 198.545 37.5111 198.017 38.6388C197.488 39.7664 196.768 40.6264 195.857 41.2189C194.946 41.8114 193.914 42.1076 192.761 42.1076C191.92 42.1076 191.222 41.9675 190.668 41.6872C190.114 41.4068 189.668 41.0692 189.33 40.6742C188.999 40.2729 188.741 39.8938 188.556 39.537H188.356V41.8496H184.954ZM188.346 34.5105C188.346 35.4598 188.48 36.2911 188.747 37.0047C189.021 37.7182 189.413 38.2756 189.923 38.677C190.439 39.072 191.063 39.2695 191.796 39.2695C192.56 39.2695 193.2 39.0656 193.716 38.6579C194.233 38.2438 194.621 37.68 194.882 36.9664C195.15 36.2465 195.284 35.4279 195.284 34.5105C195.284 33.5995 195.153 32.7904 194.892 32.0833C194.631 31.3761 194.242 30.8219 193.726 30.4205C193.21 30.0191 192.567 29.8185 191.796 29.8185C191.057 29.8185 190.429 30.0128 189.913 30.4014C189.397 30.79 189.005 31.3347 188.738 32.0355C188.477 32.7363 188.346 33.5613 188.346 34.5105Z" fill="#18191C"/>
</svg>
