<svg width="591" height="545" viewBox="0 0 591 545" fill="none" xmlns="http://www.w3.org/2000/svg">
<rect y="78.2598" width="591" height="388" rx="30" fill="url(#paint0_linear_1863_3904)" fill-opacity="0.2"/>
<path d="M158.385 137.986C171.388 141.139 179.748 154.04 175.691 166.79C176.454 168.686 176.868 170.704 176.913 172.746C176.914 175.011 176.627 177.266 176.058 179.457L169.23 212.437C172.295 214.258 173.952 216.022 173.625 217.449C173.589 217.603 173.532 217.751 173.455 217.888C170.592 229.736 167.191 241.449 164.283 253.284C161.7 265.631 158.352 276.667 157.897 289.489C157.455 296.08 156.97 298.753 158.996 306.288C159.881 309.724 163.511 311.975 164.708 312.175C165.145 312.22 165.585 312.257 166.024 312.287C166.774 312.175 167.503 312.037 168.238 311.892C169.018 311.551 169.785 311.185 170.542 310.796C171.824 309.813 173.057 308.771 174.239 307.67C175.979 305.496 177.58 303.214 179.034 300.839C181.441 295.567 183.374 290.092 184.81 284.477C186.172 277.731 187.184 270.933 188.158 264.125C188.332 260.361 189.409 256.694 191.299 253.434C198.482 236.105 221.957 221.781 253.305 214.708L252.293 207.253C248.014 207.046 243.819 205.994 239.948 204.157C223.376 196.277 216.143 175.577 221.225 154.613C218.719 151.779 217.295 148.151 217.205 144.369V144.119C217.26 140.983 218.251 137.934 220.051 135.364C221.851 132.795 224.377 130.822 227.306 129.698C229.64 128.82 232.154 128.53 234.627 128.854C240.008 122.78 246.389 118.193 253.115 115.41C245.098 113.199 237.375 110.255 230.417 106.398C213.642 97.101 200.056 79.7943 199.901 60.3688C199.838 52.5912 202.117 44.4762 207.601 39.0146C213.937 32.7085 223.946 30.9122 232.336 33.7504C240.725 36.5886 247.406 43.6243 250.847 51.8916C253.76 58.8873 254.492 66.6125 256.383 73.9704C258.275 81.3283 261.742 88.8336 268.233 92.6288C278.092 98.3952 291.896 93.9605 301 100.889C306.497 105.074 308.746 113.144 306.225 119.659C312.276 117.134 319.679 119.887 323.581 125.189C327.484 130.49 328.184 137.748 326.515 144.159C325.368 148.569 323.214 152.624 320.551 156.324C324.186 157.968 326.64 160.452 327.207 163.542C328.721 171.775 318.939 178.548 306.205 180.891C303.96 181.307 301.684 181.537 299.401 181.581L310.689 210.266C319.184 210.448 328.878 211.12 331.374 211.265C339.342 211.487 347.317 211.216 355.252 210.453C363.689 209.371 372.074 207.932 380.424 206.308C385.171 205.386 389.89 204.417 394.617 203.432C396.434 203.053 398.248 202.653 400.044 202.183C400.131 201.836 400.216 201.484 400.294 201.131C400.881 194.65 400.636 188.114 400.044 181.628C399.249 175.574 398.238 169.553 397.008 163.565C391.687 137.603 382.857 112.541 374.045 87.6119C373.925 87.1322 373.833 86.6525 373.735 86.1728C375.497 84.8403 377.297 83.5694 379.134 82.3602L375.956 72.4164C374.987 72.2598 374.015 72.0532 373.041 71.7967C371.883 71.4911 370.746 71.114 369.635 70.6674C365.706 69.7301 361.881 68.4035 358.215 66.7074C346.257 61.2633 338.102 53.4656 340.001 49.2982C341.79 45.3707 351.851 46.0502 363.002 50.6924C361.769 47.2234 360.776 43.6739 360.029 40.069C357.031 25.7404 358.122 13.3856 362.48 12.4711C364.259 12.0989 366.302 13.6854 368.306 16.6685C367.774 7.31183 369.043 0.660963 371.981 0.0463449C374.505 -0.483326 377.703 3.56416 380.621 10.29C381.088 5.49546 382.4 2.34991 384.479 1.91518C386.727 1.44048 389.46 4.27372 391.994 9.19316C392.663 6.08009 393.845 4.09383 395.492 3.74654C399.849 2.83211 405.818 13.7079 408.823 28.0364C409.028 29.0158 409.215 29.9852 409.383 30.9446L423.289 66.7374C426.343 66.52 429.381 66.4576 432.421 66.4875C433.369 68.3727 434.067 70.3733 434.498 72.4388C441.033 90.9423 447.557 109.471 452.681 128.419C457.86 147.567 461.378 167.172 462.69 186.98C462.927 190.53 463.027 194.093 462.925 197.651C462.747 203.787 461.771 209.848 460.711 215.89C460.179 219.035 459.312 222.115 458.125 225.076C456.644 228.707 455.037 232.884 452.914 236.369C450.82 239.802 448.137 243.02 445.521 245.993C442.682 249.221 438.632 251.92 435.277 254.281C433.859 255.282 432.354 256.153 430.78 256.884C425.208 259.475 419.379 261.706 413.381 263.098C405.366 264.957 397.246 266.493 389.146 267.975L387.557 268.26C406.585 330.266 407.927 416.962 407.927 416.962C270.012 433.382 236.948 416.962 236.948 416.962C225.02 399.838 215.696 379.928 208.568 360.065C205.01 362.612 201.298 364.937 197.452 367.026C195.566 368.034 193.601 368.886 191.576 369.574C187.196 371.056 182.709 372.685 178.122 373.502C173.535 374.319 168.735 374.334 164.103 374.451C161.977 374.515 159.85 374.405 157.742 374.121C156.743 373.984 155.743 373.792 154.744 373.577C151.131 372.792 147.433 372.105 143.896 370.978C139.561 369.597 135.591 367.193 131.633 365.024C129.782 364.032 128.038 362.852 126.429 361.502C122.989 358.568 119.401 355.463 116.555 351.885C113.764 348.387 111.388 344.457 109.202 340.565C108.183 338.733 107.301 336.828 106.564 334.866C104.193 328.62 102.164 322.064 101.042 315.45C100.275 310.936 99.898 306.368 99.6032 301.801C99.1285 294.466 98.7812 287.105 98.7662 279.752C98.7286 271.913 99.3134 264.084 100.515 256.337C103.286 238.823 108.538 221.781 112.935 204.619C113.372 202.7 119.141 201.911 126.716 202.121L130.964 191.26C124.81 185.641 120.595 177.691 120.595 169.319C120.595 157.076 120.773 141.693 129.34 136.914C132.143 133.888 141.282 133.553 151.468 136.309L158.385 137.986Z" fill="#F47541"/>
<path d="M460.274 215.643C459.742 218.789 458.875 221.868 457.688 224.83C456.206 228.46 454.6 232.637 452.476 236.123C450.382 239.556 447.699 242.774 445.083 245.747C442.245 248.975 438.195 251.673 434.84 254.034C433.422 255.035 431.917 255.907 430.342 256.638C424.771 259.228 418.942 261.46 412.943 262.851C404.928 264.71 396.808 266.247 388.708 267.728L387.119 268.013C406.147 330.019 407.489 416.716 407.489 416.716C269.575 433.135 236.51 416.716 236.51 416.716C224.583 399.591 215.259 379.681 208.131 359.818C204.572 362.366 200.86 364.69 197.015 366.779C195.129 367.787 193.164 368.64 191.139 369.327C186.759 370.809 182.272 372.438 177.684 373.255C173.097 374.072 168.298 374.087 163.666 374.204C161.54 374.268 159.412 374.158 157.305 373.875C156.305 373.737 155.306 373.545 154.307 373.33C150.694 372.545 146.996 371.858 143.458 370.732C139.123 369.35 135.153 366.946 131.196 364.778C129.345 363.785 127.601 362.605 125.992 361.255C122.551 358.322 118.964 355.216 116.118 351.638C113.327 348.141 110.951 344.211 108.765 340.318C107.746 338.486 106.864 336.581 106.126 334.619C103.755 328.373 101.727 321.817 100.605 315.204C99.8379 310.689 99.4606 306.122 99.1658 301.555C98.6911 294.219 98.3438 286.859 98.3288 279.506C98.2912 271.667 98.876 263.837 100.078 256.09C102.848 238.576 108.1 221.534 112.497 204.373C112.935 202.454 118.704 201.664 126.279 201.874C133.409 202.108 140.502 203.005 147.466 204.555C156.46 206.606 164.18 209.459 168.763 212.18C171.828 214.002 173.485 215.765 173.157 217.192C173.122 217.346 173.064 217.494 172.987 217.632C170.124 229.479 166.724 241.192 163.816 253.027C161.232 265.375 157.884 276.41 157.43 289.232C156.987 295.823 156.503 298.497 158.529 306.032C159.413 309.467 163.044 311.718 164.24 311.918C164.678 311.963 165.117 312.001 165.557 312.031C166.307 311.918 167.036 311.781 167.771 311.636C168.55 311.294 169.318 310.929 170.074 310.539C171.357 309.556 172.589 308.514 173.772 307.413C175.512 305.239 177.113 302.958 178.566 300.583C180.973 295.311 182.906 289.835 184.343 284.22C185.704 277.475 186.716 270.676 187.691 263.868C187.865 260.104 188.942 256.437 190.831 253.177C198.014 235.848 221.49 221.524 252.838 214.451L256.58 241.904C256.589 242.012 256.604 242.118 256.625 242.224C256.639 242.296 256.655 242.366 256.675 242.436C258.045 247.398 272.551 247.721 289.07 243.156C305.59 238.591 317.872 230.869 316.503 225.917C316.449 225.721 316.375 225.532 316.281 225.352L310.247 210.024C318.742 210.206 328.436 210.878 330.932 211.023C338.9 211.245 346.875 210.974 354.809 210.211C363.247 209.13 371.631 207.69 379.981 206.066C384.728 205.145 389.448 204.175 394.175 203.191C395.991 202.811 397.805 202.411 399.602 201.942C399.689 201.594 399.774 201.242 399.851 200.89C400.439 194.409 400.194 187.873 399.602 181.387C398.807 175.332 397.795 169.311 396.566 163.323C391.244 137.362 382.415 112.3 373.603 87.3702C373.483 86.8905 373.39 86.4108 373.293 85.9311C375.055 84.5986 376.855 83.3278 378.692 82.1185C388.367 75.7112 399.093 71.0532 410.38 68.3571C414.478 67.3988 418.648 66.7755 422.847 66.4932C425.9 66.2759 428.938 66.2134 431.979 66.2434C432.926 68.1286 433.624 70.1292 434.055 72.1947C440.591 90.6982 447.115 109.227 452.239 128.175C457.418 147.323 460.936 166.928 462.248 186.736C462.485 190.286 462.585 193.849 462.482 197.407C462.305 203.543 461.328 209.604 460.274 215.643Z" fill="#BDE4FA"/>
<path d="M268.134 150.003C269.181 150.333 269.478 152.352 268.794 154.501C268.109 156.649 266.707 158.136 265.661 157.806C264.614 157.476 264.319 155.455 265.001 153.309C265.683 151.163 267.087 149.671 268.134 150.003Z" fill="#682221"/>
<path d="M235.898 152.109C234.851 151.777 234.556 149.76 235.238 147.612C235.92 145.463 237.324 143.974 238.371 144.306C239.418 144.638 239.716 146.655 239.031 148.803C238.346 150.952 236.947 152.441 235.898 152.109Z" fill="#682221"/>
<path d="M249.254 157.45L241.334 163.896C240.887 164.261 240.367 164.603 240.335 165.243C240.317 165.76 240.707 166.217 240.974 166.634C242.065 168.333 243.156 170.031 244.247 171.728L246.946 175.931C248.033 177.622 245.337 179.179 244.255 177.502L238.314 168.258C237.91 167.707 237.594 167.097 237.377 166.449C237.166 165.66 237.18 164.828 237.417 164.047C237.654 163.266 238.105 162.566 238.718 162.027C240.003 160.895 241.384 159.858 242.716 158.779L247.046 155.254C247.703 154.719 248.605 154.622 249.249 155.254C249.809 155.788 249.906 156.92 249.254 157.45Z" fill="#682221"/>
<path d="M257.221 191.232C253.143 189.94 251.067 185.006 252.586 180.211C254.105 175.417 258.64 172.574 262.717 173.865C266.795 175.157 268.871 180.091 267.352 184.883C265.833 189.675 261.298 192.521 257.221 191.232Z" fill="#682221"/>
<path d="M155.673 166.422C148.552 165.563 141.377 163.627 134.883 160.583C133.069 159.731 134.648 157.046 136.457 157.893C140.609 159.839 145.044 161.168 149.511 162.17C151.027 162.503 152.552 162.801 154.086 163.064C154.561 163.142 155.038 163.214 155.513 163.284H155.588H155.673C156.51 163.387 157.232 163.929 157.232 164.843C157.235 164.904 157.235 164.965 157.232 165.026C157.202 165.214 157.141 165.396 157.052 165.565C156.769 166.09 156.252 166.49 155.673 166.422Z" fill="#682221"/>
<path d="M163.594 154.153C163.547 154.902 162.845 155.727 162.04 155.629C154.917 154.77 147.741 152.833 141.248 149.79C139.434 148.941 141.016 146.253 142.822 147.1C146.974 149.046 151.409 150.375 155.876 151.377C157.392 151.71 158.917 152.008 160.451 152.271C160.926 152.349 161.403 152.421 161.878 152.491L161.955 152.504H162.04C162.837 152.599 163.539 153.098 163.592 153.94C163.592 153.98 163.592 154.02 163.592 154.06C163.592 154.1 163.597 154.113 163.594 154.153Z" fill="#682221"/>
<path d="M151.382 178.403C144.724 178.13 137.91 176.299 131.894 173.488C131.145 173.131 130.94 172.034 131.337 171.354C131.794 170.575 132.704 170.438 133.468 170.797C138.965 173.373 145.321 175.045 151.374 175.294C152.404 175.337 152.906 176.184 152.874 176.983C152.867 177.208 152.815 177.429 152.721 177.633C152.604 177.883 152.412 178.091 152.173 178.229C151.933 178.367 151.657 178.427 151.382 178.403Z" fill="#682221"/>
<path d="M244.348 134.353C246.91 137.505 248.163 141.521 247.846 145.571C249.637 145.668 251.366 146.258 252.843 147.277C254.568 143.623 257.641 140.778 261.417 139.34C267.484 137.029 274.687 138.955 278.789 143.987C282.892 149.019 283.536 156.229 280.183 161.826C276.83 167.422 270.307 170.278 263.943 169.134C256.678 167.825 251.484 161.279 251.324 154.013C251.321 153.971 251.321 153.928 251.324 153.886C251.321 153.844 251.321 153.802 251.324 153.761C251.348 152.623 251.493 151.49 251.756 150.383C251.661 150.293 251.563 150.205 251.464 150.118L251.229 149.926L251.344 150.036C251.296 149.99 251.245 149.947 251.191 149.908C250.857 149.673 250.504 149.464 250.137 149.284L249.887 149.166H249.872C249.682 149.091 249.487 149.026 249.292 148.966C248.951 148.859 248.603 148.776 248.251 148.716C248.046 148.694 247.843 148.681 247.641 148.674C247.528 148.671 247.416 148.655 247.306 148.626C246.946 149.875 246.426 151.073 245.76 152.189C242.422 157.776 235.883 160.641 229.52 159.495C226.184 158.883 223.153 157.16 220.92 154.608C218.413 151.774 216.99 148.146 216.9 144.364C216.9 144.322 216.9 144.279 216.9 144.234C216.9 144.189 216.9 144.152 216.9 144.112C216.955 140.975 217.946 137.926 219.746 135.357C221.546 132.787 224.072 130.814 227.001 129.691C229.335 128.813 231.849 128.523 234.322 128.846C238.243 129.338 241.829 131.308 244.348 134.353ZM262.587 165.553C264.996 166.432 267.618 166.542 270.093 165.869C272.567 165.197 274.773 163.774 276.406 161.797C278.039 159.82 279.02 157.386 279.214 154.829C279.407 152.272 278.804 149.717 277.487 147.517C274.867 143.13 269.612 140.711 264.573 141.676C261.734 142.232 259.175 143.75 257.326 145.975C255.477 148.199 254.452 150.993 254.424 153.886C254.489 159.042 257.672 163.79 262.582 165.553H262.587ZM231.826 131.842C231.258 131.868 230.693 131.934 230.134 132.042C227.296 132.597 224.736 134.115 222.887 136.339C221.038 138.563 220.013 141.357 219.986 144.249C220.019 146.59 220.691 148.878 221.929 150.865C223.375 153.202 225.567 154.982 228.151 155.917C229.877 156.544 231.721 156.781 233.55 156.609C235.379 156.438 237.147 155.863 238.726 154.926C240.306 153.989 241.658 152.713 242.686 151.19C243.713 149.668 244.389 147.936 244.666 146.12C244.944 144.304 244.815 142.45 244.289 140.69C243.762 138.93 242.852 137.309 241.624 135.943C240.396 134.577 238.88 133.501 237.186 132.792C235.491 132.083 233.661 131.758 231.826 131.842Z" fill="#BDE4FA"/>
<path d="M301.079 154.811C297.288 155.485 293.616 156.711 290.181 158.451C284.639 146.925 283.507 133.239 287.182 120.919C276.002 120.2 264.099 118.536 252.789 115.423C244.771 113.211 237.049 110.268 230.09 106.411C213.316 97.1139 199.729 79.8071 199.574 60.3817C199.512 52.604 201.79 44.4891 207.275 39.0275C213.611 32.7214 223.619 30.925 232.009 33.7633C240.399 36.6015 247.077 43.6246 250.518 51.892C253.431 58.8876 254.163 66.6129 256.054 73.9708C257.946 81.3287 261.413 88.834 267.904 92.6292C277.763 98.3956 291.567 93.9608 300.671 100.889C306.168 105.074 308.417 113.144 305.896 119.66C311.947 117.134 319.35 119.887 323.252 125.189C327.155 130.491 327.855 137.749 326.186 144.16C325.039 148.569 322.885 152.624 320.222 156.325C315.387 154.153 308.457 153.454 301.079 154.811Z" fill="#682221"/>
<path d="M295.489 171.2L292.379 171.822C290.42 172.214 289.583 169.211 291.552 168.824L313.096 164.514L316.201 163.897C318.16 163.504 318.997 166.507 317.031 166.895L295.489 171.2Z" fill="#682221"/>
<path d="M207.109 504.358H212.731V523.116C212.731 524.85 212.342 526.356 211.562 527.634C210.792 528.913 209.719 529.898 208.344 530.59C206.969 531.282 205.371 531.628 203.55 531.628C201.93 531.628 200.458 531.343 199.136 530.774C197.822 530.196 196.78 529.32 196.01 528.147C195.239 526.964 194.858 525.48 194.867 523.694H200.528C200.546 524.403 200.69 525.012 200.962 525.519C201.242 526.019 201.623 526.404 202.105 526.675C202.595 526.938 203.173 527.069 203.839 527.069C204.539 527.069 205.13 526.921 205.612 526.623C206.102 526.316 206.474 525.87 206.728 525.283C206.982 524.696 207.109 523.974 207.109 523.116V504.358ZM226.445 531.654C224.405 531.654 222.64 531.22 221.151 530.353C219.671 529.478 218.529 528.26 217.723 526.702C216.917 525.134 216.515 523.317 216.515 521.25C216.515 519.166 216.917 517.345 217.723 515.786C218.529 514.218 219.671 513.001 221.151 512.134C222.64 511.259 224.405 510.821 226.445 510.821C228.485 510.821 230.246 511.259 231.726 512.134C233.214 513.001 234.361 514.218 235.167 515.786C235.973 517.345 236.376 519.166 236.376 521.25C236.376 523.317 235.973 525.134 235.167 526.702C234.361 528.26 233.214 529.478 231.726 530.353C230.246 531.22 228.485 531.654 226.445 531.654ZM226.471 527.319C227.4 527.319 228.175 527.056 228.796 526.531C229.418 525.997 229.887 525.27 230.202 524.35C230.526 523.431 230.688 522.384 230.688 521.211C230.688 520.038 230.526 518.991 230.202 518.072C229.887 517.152 229.418 516.425 228.796 515.891C228.175 515.357 227.4 515.09 226.471 515.09C225.534 515.09 224.746 515.357 224.107 515.891C223.476 516.425 222.999 517.152 222.675 518.072C222.36 518.991 222.202 520.038 222.202 521.211C222.202 522.384 222.36 523.431 222.675 524.35C222.999 525.27 223.476 525.997 224.107 526.531C224.746 527.056 225.534 527.319 226.471 527.319ZM240.119 531.26V504.358H245.715V514.472H245.886C246.131 513.929 246.486 513.378 246.95 512.817C247.423 512.248 248.036 511.775 248.789 511.399C249.551 511.013 250.496 510.821 251.626 510.821C253.097 510.821 254.455 511.206 255.698 511.977C256.942 512.738 257.936 513.89 258.68 515.431C259.424 516.964 259.796 518.886 259.796 521.198C259.796 523.448 259.433 525.349 258.706 526.899C257.988 528.44 257.007 529.609 255.764 530.406C254.529 531.194 253.145 531.588 251.613 531.588C250.527 531.588 249.603 531.409 248.841 531.05C248.088 530.691 247.471 530.24 246.989 529.697C246.508 529.145 246.14 528.589 245.886 528.028H245.636V531.26H240.119ZM245.597 521.172C245.597 522.371 245.763 523.418 246.096 524.311C246.429 525.204 246.91 525.9 247.541 526.4C248.171 526.89 248.938 527.135 249.84 527.135C250.75 527.135 251.521 526.886 252.152 526.386C252.782 525.879 253.259 525.178 253.583 524.285C253.916 523.383 254.082 522.345 254.082 521.172C254.082 520.007 253.92 518.982 253.596 518.098C253.272 517.213 252.795 516.522 252.165 516.022C251.534 515.523 250.759 515.274 249.84 515.274C248.929 515.274 248.158 515.514 247.528 515.996C246.906 516.478 246.429 517.161 246.096 518.045C245.763 518.93 245.597 519.972 245.597 521.172ZM286.79 512.095C286.685 511.035 286.234 510.212 285.437 509.625C284.64 509.039 283.559 508.745 282.193 508.745C281.265 508.745 280.481 508.877 279.841 509.139C279.202 509.393 278.712 509.748 278.37 510.203C278.038 510.659 277.871 511.175 277.871 511.753C277.854 512.235 277.954 512.655 278.173 513.014C278.401 513.373 278.712 513.684 279.106 513.947C279.5 514.201 279.955 514.424 280.472 514.617C280.989 514.801 281.54 514.958 282.127 515.09L284.544 515.668C285.718 515.93 286.795 516.281 287.775 516.719C288.756 517.156 289.606 517.695 290.324 518.334C291.042 518.974 291.598 519.727 291.992 520.594C292.395 521.461 292.601 522.454 292.609 523.575C292.601 525.222 292.18 526.649 291.348 527.858C290.525 529.057 289.334 529.99 287.775 530.656C286.225 531.312 284.356 531.641 282.167 531.641C279.995 531.641 278.103 531.308 276.492 530.642C274.889 529.977 273.637 528.992 272.735 527.687C271.842 526.373 271.373 524.749 271.33 522.814H276.833C276.895 523.716 277.153 524.469 277.608 525.073C278.073 525.668 278.69 526.119 279.461 526.426C280.24 526.724 281.12 526.872 282.101 526.872C283.064 526.872 283.9 526.732 284.61 526.452C285.328 526.172 285.884 525.782 286.278 525.283C286.672 524.784 286.869 524.21 286.869 523.562C286.869 522.958 286.69 522.45 286.331 522.039C285.98 521.627 285.464 521.277 284.781 520.988C284.106 520.699 283.279 520.436 282.298 520.2L279.369 519.464C277.101 518.912 275.31 518.05 273.996 516.876C272.683 515.703 272.03 514.122 272.039 512.134C272.03 510.505 272.464 509.082 273.339 507.865C274.224 506.648 275.437 505.698 276.978 505.015C278.519 504.332 280.271 503.99 282.232 503.99C284.229 503.99 285.971 504.332 287.46 505.015C288.958 505.698 290.122 506.648 290.954 507.865C291.786 509.082 292.215 510.492 292.242 512.095H286.79ZM305.525 531.654C303.45 531.654 301.663 531.233 300.166 530.393C298.677 529.543 297.53 528.344 296.724 526.794C295.918 525.235 295.516 523.392 295.516 521.264C295.516 519.188 295.918 517.367 296.724 515.799C297.53 514.232 298.664 513.01 300.126 512.134C301.597 511.259 303.323 510.821 305.302 510.821C306.633 510.821 307.872 511.035 309.019 511.464C310.175 511.885 311.182 512.52 312.04 513.369C312.907 514.218 313.582 515.287 314.063 516.574C314.545 517.853 314.786 519.35 314.786 521.066V522.603H297.749V519.136H309.518C309.518 518.33 309.343 517.616 308.993 516.994C308.643 516.373 308.156 515.887 307.535 515.536C306.922 515.177 306.208 514.998 305.394 514.998C304.544 514.998 303.791 515.195 303.134 515.589C302.486 515.974 301.978 516.495 301.611 517.152C301.243 517.8 301.054 518.523 301.046 519.319V522.617C301.046 523.615 301.23 524.477 301.597 525.204C301.974 525.931 302.504 526.492 303.187 526.886C303.87 527.28 304.68 527.477 305.617 527.477C306.239 527.477 306.808 527.389 307.325 527.214C307.841 527.039 308.283 526.776 308.651 526.426C309.019 526.076 309.299 525.646 309.492 525.139L314.667 525.48C314.405 526.724 313.866 527.809 313.052 528.738C312.246 529.657 311.204 530.375 309.925 530.892C308.656 531.4 307.189 531.654 305.525 531.654ZM327.632 531.654C325.557 531.654 323.77 531.233 322.273 530.393C320.784 529.543 319.637 528.344 318.831 526.794C318.026 525.235 317.623 523.392 317.623 521.264C317.623 519.188 318.026 517.367 318.831 515.799C319.637 514.232 320.771 513.01 322.234 512.134C323.705 511.259 325.43 510.821 327.409 510.821C328.74 510.821 329.979 511.035 331.126 511.464C332.282 511.885 333.289 512.52 334.148 513.369C335.015 514.218 335.689 515.287 336.17 516.574C336.652 517.853 336.893 519.35 336.893 521.066V522.603H319.856V519.136H331.626C331.626 518.33 331.45 517.616 331.1 516.994C330.75 516.373 330.264 515.887 329.642 515.536C329.029 515.177 328.315 514.998 327.501 514.998C326.651 514.998 325.898 515.195 325.242 515.589C324.594 515.974 324.086 516.495 323.718 517.152C323.35 517.8 323.162 518.523 323.153 519.319V522.617C323.153 523.615 323.337 524.477 323.705 525.204C324.081 525.931 324.611 526.492 325.294 526.886C325.977 527.28 326.787 527.477 327.724 527.477C328.346 527.477 328.915 527.389 329.432 527.214C329.949 527.039 330.391 526.776 330.759 526.426C331.126 526.076 331.407 525.646 331.599 525.139L336.775 525.48C336.512 526.724 335.973 527.809 335.159 528.738C334.353 529.657 333.311 530.375 332.033 530.892C330.763 531.4 329.296 531.654 327.632 531.654ZM345.615 525.454L345.628 518.741H346.443L352.905 511.083H359.329L350.646 521.224H349.319L345.615 525.454ZM340.545 531.26V504.358H346.14V531.26H340.545ZM353.155 531.26L347.218 522.472L350.948 518.518L359.71 531.26H353.155ZM370.438 531.654C368.363 531.654 366.576 531.233 365.079 530.393C363.59 529.543 362.443 528.344 361.637 526.794C360.832 525.235 360.429 523.392 360.429 521.264C360.429 519.188 360.832 517.367 361.637 515.799C362.443 514.232 363.577 513.01 365.039 512.134C366.511 511.259 368.236 510.821 370.215 510.821C371.546 510.821 372.785 511.035 373.932 511.464C375.088 511.885 376.095 512.52 376.953 513.369C377.82 514.218 378.495 515.287 378.976 516.574C379.458 517.853 379.699 519.35 379.699 521.066V522.603H362.662V519.136H374.431C374.431 518.33 374.256 517.616 373.906 516.994C373.556 516.373 373.07 515.887 372.448 515.536C371.835 515.177 371.121 514.998 370.307 514.998C369.457 514.998 368.704 515.195 368.047 515.589C367.399 515.974 366.891 516.495 366.524 517.152C366.156 517.8 365.968 518.523 365.959 519.319V522.617C365.959 523.615 366.143 524.477 366.511 525.204C366.887 525.931 367.417 526.492 368.1 526.886C368.783 527.28 369.593 527.477 370.53 527.477C371.152 527.477 371.721 527.389 372.238 527.214C372.754 527.039 373.197 526.776 373.564 526.426C373.932 526.076 374.212 525.646 374.405 525.139L379.581 525.48C379.318 526.724 378.779 527.809 377.965 528.738C377.159 529.657 376.117 530.375 374.839 530.892C373.569 531.4 372.102 531.654 370.438 531.654ZM383.35 531.26V511.083H388.775V514.604H388.986C389.353 513.351 389.971 512.406 390.838 511.766C391.705 511.118 392.703 510.794 393.833 510.794C394.113 510.794 394.415 510.812 394.739 510.847C395.063 510.882 395.348 510.93 395.593 510.991V515.957C395.33 515.878 394.967 515.808 394.503 515.747C394.038 515.685 393.614 515.655 393.228 515.655C392.405 515.655 391.67 515.834 391.022 516.193C390.382 516.543 389.874 517.034 389.498 517.664C389.13 518.295 388.946 519.022 388.946 519.845V531.26H383.35Z" fill="black"/>
<defs>
<linearGradient id="paint0_linear_1863_3904" x1="295.5" y1="78.2598" x2="295.5" y2="466.26" gradientUnits="userSpaceOnUse">
<stop stop-color="#D9D9D9"/>
<stop offset="1" stop-color="#737373"/>
</linearGradient>
</defs>
</svg>
