<svg width="25" height="25" viewBox="0 0 25 25" fill="none" xmlns="http://www.w3.org/2000/svg">
<path d="M17.8574 14.15V17.15C17.8574 21.15 16.2574 22.75 12.2574 22.75H8.45742C4.45742 22.75 2.85742 21.15 2.85742 17.15V13.35C2.85742 9.35 4.45742 7.75 8.45742 7.75H11.4574" stroke="#292D32" stroke-width="1.5" stroke-linecap="round" stroke-linejoin="round"/>
<path d="M17.857 14.15H14.657C12.257 14.15 11.457 13.35 11.457 10.95V7.75L17.857 14.15Z" stroke="#292D32" stroke-width="1.5" stroke-linecap="round" stroke-linejoin="round"/>
<path d="M12.457 2.75H16.457" stroke="#292D32" stroke-width="1.5" stroke-linecap="round" stroke-linejoin="round"/>
<path d="M7.85742 5.75C7.85742 4.09 9.19742 2.75 10.8574 2.75H13.4774" stroke="#292D32" stroke-width="1.5" stroke-linecap="round" stroke-linejoin="round"/>
<path d="M22.8579 8.75V14.94C22.8579 16.49 21.5979 17.75 20.0479 17.75" stroke="#292D32" stroke-width="1.5" stroke-linecap="round" stroke-linejoin="round"/>
<path d="M22.8574 8.75H19.8574C17.6074 8.75 16.8574 8 16.8574 5.75V2.75L22.8574 8.75Z" stroke="#292D32" stroke-width="1.5" stroke-linecap="round" stroke-linejoin="round"/>
</svg>
