<svg width="24" height="24" viewBox="0 0 24 24" fill="none" xmlns="http://www.w3.org/2000/svg">
<path d="M7 2C6.44772 2 6 2.44772 6 3V4H5C3.89543 4 3 4.89543 3 6V8H21V6C21 4.89543 20.1046 4 19 4H18V3C18 2.44772 17.5523 2 17 2H16C15.4477 2 15 2.44772 15 3V4H9V3C9 2.44772 8.55228 2 8 2H7Z" fill="#667483"/>
<path fill-rule="evenodd" clip-rule="evenodd" d="M21 10H3V19C3 20.1046 3.89543 21 5 21H19C20.1046 21 21 20.1046 21 19V10ZM6 13C6 12.4477 6.44772 12 7 12H9C9.55228 12 10 12.4477 10 13V14C10 14.5523 9.55228 15 9 15H7C6.44772 15 6 14.5523 6 14V13Z" fill="#667483"/>
</svg>
