<svg width="53" height="53" viewBox="0 0 53 53" fill="none" xmlns="http://www.w3.org/2000/svg">
<rect x="0.987488" y="0.2771" width="51.85" height="51.85" rx="4.32083" fill="#EDEFF5"/>
<g clip-path="url(#clip0_957_12709)">
<path d="M19.6954 28.9065L18.793 32.2753L15.4947 32.3451C14.509 30.5168 13.9499 28.425 13.9499 26.2022C13.9499 24.0527 14.4726 22.0257 15.3993 20.2408H15.4L18.3364 20.7792L19.6227 23.698C19.3535 24.4829 19.2067 25.3254 19.2067 26.2022C19.2068 27.1537 19.3792 28.0654 19.6954 28.9065Z" fill="#FBBB00"/>
<path d="M39.6482 23.7806C39.7971 24.5648 39.8747 25.3746 39.8747 26.2022C39.8747 27.1302 39.7772 28.0355 39.5913 28.9087C38.9603 31.8801 37.3114 34.4747 35.0274 36.3108L35.0267 36.3101L31.3281 36.1214L30.8046 32.8537C32.3202 31.9648 33.5047 30.5739 34.1286 28.9087H27.1972V23.7806H34.2297H39.6482Z" fill="#518EF8"/>
<path d="M35.0269 36.3101L35.0276 36.3108C32.8062 38.0963 29.9843 39.1646 26.9125 39.1646C21.9761 39.1646 17.6842 36.4055 15.4948 32.3451L19.6955 28.9065C20.7902 31.828 23.6085 33.9077 26.9125 33.9077C28.3326 33.9077 29.6631 33.5238 30.8048 32.8536L35.0269 36.3101Z" fill="#28B446"/>
<path d="M35.1863 16.2238L30.9871 19.6617C29.8055 18.9232 28.4088 18.4965 26.9124 18.4965C23.5336 18.4965 20.6626 20.6716 19.6228 23.6979L15.4 20.2408H15.3993C17.5566 16.0814 21.9026 13.2396 26.9124 13.2396C30.0576 13.2396 32.9414 14.36 35.1863 16.2238Z" fill="#F14336"/>
</g>
<defs>
<clipPath id="clip0_957_12709">
<rect width="25.925" height="25.925" fill="white" transform="translate(13.95 13.2396)"/>
</clipPath>
</defs>
</svg>
