<svg width="23" height="23" viewBox="0 0 23 23" fill="none" xmlns="http://www.w3.org/2000/svg">
<g clip-path="url(#clip0_957_13229)">
<path d="M22.3151 6.94098C22.2644 5.79131 22.0785 5.00093 21.8122 4.31605C21.5374 3.58906 21.1148 2.9382 20.561 2.39713C20.0199 1.84764 19.3648 1.42066 18.6462 1.15021C17.9574 0.883889 17.1711 0.697974 16.0214 0.647285C14.8632 0.592303 14.4955 0.57959 11.5578 0.57959C8.62019 0.57959 8.25249 0.592303 7.09853 0.642992C5.94886 0.693681 5.15848 0.879761 4.47377 1.14592C3.74662 1.42066 3.09576 1.84335 2.55469 2.39713C2.0052 2.9382 1.57839 3.59336 1.30777 4.31192C1.04145 5.00093 0.855536 5.78702 0.804847 6.93668C0.749866 8.09494 0.737152 8.46264 0.737152 11.4003C0.737152 14.3379 0.749866 14.7056 0.800555 15.8596C0.851243 17.0093 1.03732 17.7997 1.30365 18.4845C1.57839 19.2115 2.0052 19.8624 2.55469 20.4034C3.09576 20.9529 3.75091 21.3799 4.46947 21.6504C5.15848 21.9167 5.94457 22.1026 7.0944 22.1533C8.24819 22.2041 8.61606 22.2167 11.5537 22.2167C14.4914 22.2167 14.8591 22.2041 16.013 22.1533C17.1627 22.1026 17.9531 21.9167 18.6378 21.6504C20.0919 21.0882 21.2416 19.9385 21.8038 18.4845C22.0699 17.7955 22.256 17.0093 22.3067 15.8596C22.3574 14.7056 22.3701 14.3379 22.3701 11.4003C22.3701 8.46264 22.3658 8.09494 22.3151 6.94098ZM20.3666 15.7751C20.3201 16.8318 20.1426 17.4024 19.9946 17.7828C19.6311 18.7254 18.883 19.4735 17.9403 19.8371C17.5599 19.9851 16.9852 20.1625 15.9326 20.2089C14.7914 20.2598 14.4491 20.2723 11.5621 20.2723C8.67517 20.2723 8.3286 20.2598 7.19149 20.2089C6.13478 20.1625 5.56416 19.9851 5.18374 19.8371C4.71466 19.6637 4.28769 19.389 3.94112 19.0297C3.58184 18.6789 3.3071 18.2562 3.13373 17.7871C2.98579 17.4067 2.8083 16.8318 2.7619 15.7794C2.71105 14.6381 2.6985 14.2957 2.6985 11.4087C2.6985 8.52175 2.71105 8.17518 2.7619 7.03823C2.8083 5.98152 2.98579 5.4109 3.13373 5.03048C3.3071 4.56124 3.58184 4.13442 3.94541 3.78769C4.29611 3.42841 4.71879 3.15367 5.18804 2.98047C5.56845 2.83253 6.14336 2.65503 7.19578 2.60847C8.33702 2.55778 8.67946 2.54507 11.5663 2.54507C14.4575 2.54507 14.7998 2.55778 15.9369 2.60847C16.9936 2.65503 17.5642 2.83253 17.9446 2.98047C18.4137 3.15367 18.8407 3.42841 19.1873 3.78769C19.5465 4.13855 19.8213 4.56124 19.9946 5.03048C20.1426 5.4109 20.3201 5.98565 20.3666 7.03823C20.4173 8.17947 20.43 8.52175 20.43 11.4087C20.43 14.2957 20.4173 14.6338 20.3666 15.7751Z" fill="#767F8C"/>
<path d="M11.5577 5.84192C8.48916 5.84192 5.99945 8.33146 5.99945 11.4002C5.99945 14.469 8.48916 16.9585 11.5577 16.9585C14.6265 16.9585 17.116 14.469 17.116 11.4002C17.116 8.33146 14.6265 5.84192 11.5577 5.84192ZM11.5577 15.0057C9.567 15.0057 7.95222 13.3911 7.95222 11.4002C7.95222 9.4093 9.567 7.79468 11.5577 7.79468C13.5486 7.79468 15.1633 9.4093 15.1633 11.4002C15.1633 13.3911 13.5486 15.0057 11.5577 15.0057Z" fill="#767F8C"/>
<path d="M18.6336 5.62232C18.6336 6.3389 18.0526 6.91993 17.3358 6.91993C16.6192 6.91993 16.0382 6.3389 16.0382 5.62232C16.0382 4.90557 16.6192 4.32471 17.3358 4.32471C18.0526 4.32471 18.6336 4.90557 18.6336 5.62232Z" fill="#767F8C"/>
</g>
<defs>
<clipPath id="clip0_957_13229">
<rect width="21.6372" height="21.6372" fill="white" transform="translate(0.699097 0.57959)"/>
</clipPath>
</defs>
</svg>
