<svg width="127" height="126" viewBox="0 0 127 126" fill="none" xmlns="http://www.w3.org/2000/svg">
<rect x="0.716919" width="125.552" height="125.552" rx="26.1566" fill="#E7F0FA"/>
<g clip-path="url(#clip0_957_12536)">
<path opacity="0.2" d="M63.4924 69.315C54.3098 69.3295 45.2866 66.9154 37.338 62.3177V84.5731C37.3379 84.8593 37.3943 85.1427 37.5039 85.4072C37.6134 85.6717 37.774 85.9119 37.9764 86.1144C38.1788 86.3168 38.4191 86.4773 38.6835 86.5869C38.948 86.6964 39.2314 86.7528 39.5177 86.7528H87.4714C87.7577 86.7528 88.0411 86.6964 88.3056 86.5869C88.57 86.4773 88.8103 86.3168 89.0127 86.1144C89.2151 85.9119 89.3757 85.6717 89.4852 85.4072C89.5947 85.1427 89.6511 84.8593 89.6511 84.5731V62.3152C81.7014 66.9146 72.6767 69.3295 63.4924 69.315Z" fill="#0A65CC"/>
<path d="M87.4714 47.5178H39.5177C38.3138 47.5178 37.338 48.4937 37.338 49.6975V84.573C37.338 85.7768 38.3138 86.7527 39.5177 86.7527H87.4714C88.6752 86.7527 89.6511 85.7768 89.6511 84.573V49.6975C89.6511 48.4937 88.6752 47.5178 87.4714 47.5178Z" stroke="#0A65CC" stroke-width="3.48754" stroke-linecap="round" stroke-linejoin="round"/>
<path d="M74.3911 47.5177V43.1583C74.3911 42.0021 73.9318 40.8932 73.1142 40.0757C72.2967 39.2581 71.1879 38.7988 70.0317 38.7988H56.9534C55.7972 38.7988 54.6883 39.2581 53.8708 40.0757C53.0532 40.8932 52.5939 42.0021 52.5939 43.1583V47.5177" stroke="#0A65CC" stroke-width="3.48754" stroke-linecap="round" stroke-linejoin="round"/>
<path d="M89.6512 62.3152C81.7014 66.9145 72.6767 69.3295 63.4924 69.315C54.3096 69.3295 45.2864 66.9154 37.3376 62.3175" stroke="#0A65CC" stroke-width="3.48754" stroke-linecap="round" stroke-linejoin="round"/>
<path d="M60.2229 60.5959H66.762" stroke="#0A65CC" stroke-width="3.48754" stroke-linecap="round" stroke-linejoin="round"/>
</g>
<defs>
<clipPath id="clip0_957_12536">
<rect width="69.7509" height="69.7509" fill="white" transform="translate(28.6172 27.9001)"/>
</clipPath>
</defs>
</svg>
