<svg width="265" height="64" viewBox="0 0 265 64" fill="none" xmlns="http://www.w3.org/2000/svg">
<path d="M24.7275 31.2002H38.0609" stroke="#0A65CC" stroke-width="1.5" stroke-linecap="round" stroke-linejoin="round"/>
<path d="M31.3945 37.8665V24.5332" stroke="#0A65CC" stroke-width="1.5" stroke-linecap="round" stroke-linejoin="round"/>
<path d="M30.8607 56.0002C44.8519 56.0002 56.194 44.658 56.194 30.6668C56.194 16.6756 44.8519 5.3335 30.8607 5.3335C16.8695 5.3335 5.52734 16.6756 5.52734 30.6668C5.52734 44.658 16.8695 56.0002 30.8607 56.0002Z" stroke="#0A65CC" stroke-width="1.5" stroke-linecap="round" stroke-linejoin="round"/>
<path d="M58.8607 58.6668L53.5273 53.3335" stroke="#0A65CC" stroke-width="1.5" stroke-linecap="round" stroke-linejoin="round"/>
<path d="M89.7383 18.1543H94.5622V37.0302C94.5534 38.7605 94.1864 40.2504 93.4611 41.5001C92.7358 42.741 91.7221 43.6979 90.42 44.3708C89.1266 45.035 87.6192 45.367 85.8976 45.367C84.3246 45.367 82.909 45.0874 81.6506 44.5281C80.4009 43.9601 79.4091 43.1212 78.675 42.0113C77.9409 40.9015 77.5739 39.5208 77.5739 37.8691H82.4108C82.4196 38.5944 82.5769 39.2193 82.8827 39.7436C83.1973 40.2679 83.6299 40.6699 84.1805 40.9496C84.731 41.2292 85.3646 41.369 86.0811 41.369C86.8589 41.369 87.5187 41.2073 88.0605 40.884C88.6023 40.5519 89.013 40.0626 89.2927 39.4159C89.581 38.7692 89.7296 37.974 89.7383 37.0302V18.1543ZM108.411 45.3932C106.445 45.3932 104.741 44.9607 103.299 44.0955C101.857 43.2304 100.738 42.0201 99.9431 40.4645C99.1566 38.909 98.7634 37.0914 98.7634 35.0115C98.7634 32.9317 99.1566 31.1096 99.9431 29.5454C100.738 27.9811 101.857 26.7664 103.299 25.9013C104.741 25.0362 106.445 24.6036 108.411 24.6036C110.377 24.6036 112.081 25.0362 113.523 25.9013C114.965 26.7664 116.079 27.9811 116.866 29.5454C117.661 31.1096 118.059 32.9317 118.059 35.0115C118.059 37.0914 117.661 38.909 116.866 40.4645C116.079 42.0201 114.965 43.2304 113.523 44.0955C112.081 44.9607 110.377 45.3932 108.411 45.3932ZM108.437 41.5919C109.503 41.5919 110.395 41.2991 111.111 40.7136C111.828 40.1194 112.361 39.3241 112.711 38.3279C113.069 37.3317 113.248 36.2218 113.248 34.9984C113.248 33.7662 113.069 32.652 112.711 31.6558C112.361 30.6508 111.828 29.8512 111.111 29.257C110.395 28.6628 109.503 28.3656 108.437 28.3656C107.345 28.3656 106.436 28.6628 105.711 29.257C104.994 29.8512 104.457 30.6508 104.098 31.6558C103.749 32.652 103.574 33.7662 103.574 34.9984C103.574 36.2218 103.749 37.3317 104.098 38.3279C104.457 39.3241 104.994 40.1194 105.711 40.7136C106.436 41.2991 107.345 41.5919 108.437 41.5919ZM122.296 45V18.1543H127.041V28.1952H127.238C127.482 27.7059 127.828 27.1859 128.273 26.6354C128.719 26.0761 129.322 25.5998 130.082 25.2066C130.843 24.8046 131.813 24.6036 132.992 24.6036C134.548 24.6036 135.95 25.0012 137.2 25.7964C138.458 26.5829 139.455 27.7496 140.189 29.2963C140.931 30.8344 141.303 32.7219 141.303 34.9591C141.303 37.17 140.94 39.0489 140.215 40.5956C139.49 42.1424 138.502 43.3221 137.252 44.1349C136.003 44.9476 134.587 45.3539 133.005 45.3539C131.852 45.3539 130.895 45.1617 130.135 44.7772C129.374 44.3927 128.763 43.9295 128.3 43.3877C127.845 42.8371 127.491 42.3172 127.238 41.8278H126.962V45H122.296ZM126.949 34.9329C126.949 36.235 127.133 37.3754 127.5 38.3541C127.876 39.3329 128.413 40.0975 129.112 40.6481C129.82 41.1899 130.676 41.4608 131.681 41.4608C132.73 41.4608 133.608 41.1811 134.316 40.6218C135.024 40.0538 135.557 39.2804 135.915 38.3017C136.282 37.3142 136.466 36.1913 136.466 34.9329C136.466 33.6832 136.287 32.5734 135.929 31.6034C135.57 30.6334 135.037 29.8731 134.329 29.3225C133.621 28.772 132.739 28.4967 131.681 28.4967C130.668 28.4967 129.807 28.7633 129.099 29.2963C128.391 29.8294 127.854 30.5766 127.487 31.5378C127.129 32.4991 126.949 33.6308 126.949 34.9329ZM161.25 30.1877L156.925 30.6596C156.802 30.2226 156.588 29.8119 156.282 29.4274C155.985 29.0429 155.583 28.7327 155.076 28.4967C154.57 28.2608 153.949 28.1428 153.215 28.1428C152.228 28.1428 151.397 28.3569 150.724 28.7851C150.06 29.2133 149.733 29.7682 149.741 30.4499C149.733 31.0354 149.947 31.5116 150.384 31.8787C150.829 32.2457 151.563 32.5472 152.586 32.7831L156.02 33.5172C157.925 33.9279 159.341 34.5789 160.267 35.4703C161.202 36.3617 161.674 37.5283 161.683 38.9702C161.674 40.2373 161.303 41.3559 160.569 42.3259C159.843 43.2872 158.834 44.0387 157.541 44.5805C156.247 45.1223 154.762 45.3932 153.084 45.3932C150.62 45.3932 148.636 44.8777 147.133 43.8465C145.63 42.8066 144.734 41.3603 144.446 39.5076L149.073 39.062C149.283 39.9708 149.728 40.6568 150.41 41.12C151.091 41.5831 151.978 41.8147 153.071 41.8147C154.198 41.8147 155.103 41.5831 155.784 41.12C156.475 40.6568 156.82 40.0844 156.82 39.4028C156.82 38.826 156.597 38.3498 156.151 37.974C155.714 37.5982 155.033 37.3098 154.106 37.1088L150.672 36.3879C148.741 35.9859 147.312 35.3086 146.386 34.3561C145.459 33.3948 145 32.1801 145.009 30.712C145 29.4711 145.337 28.3962 146.019 27.4874C146.709 26.5698 147.666 25.862 148.889 25.3639C150.121 24.857 151.542 24.6036 153.149 24.6036C155.509 24.6036 157.366 25.1061 158.72 26.111C160.084 27.116 160.927 28.4749 161.25 30.1877ZM174.509 45.3932C172.491 45.3932 170.747 44.9738 169.279 44.1349C167.82 43.2872 166.697 42.09 165.91 40.5432C165.124 38.9877 164.731 37.1569 164.731 35.0508C164.731 32.9797 165.124 31.1621 165.91 29.5978C166.706 28.0248 167.815 26.8014 169.24 25.9275C170.664 25.0449 172.338 24.6036 174.26 24.6036C175.501 24.6036 176.672 24.8046 177.773 25.2066C178.883 25.5998 179.862 26.2115 180.71 27.0417C181.566 27.8719 182.239 28.9293 182.728 30.2139C183.218 31.4898 183.462 33.0103 183.462 34.7756V36.2306H166.959V33.0322H178.914C178.905 32.1233 178.708 31.315 178.324 30.6072C177.939 29.8906 177.402 29.3269 176.712 28.9162C176.03 28.5055 175.235 28.3001 174.326 28.3001C173.356 28.3001 172.504 28.5361 171.77 29.0079C171.036 29.4711 170.463 30.0828 170.053 30.8431C169.651 31.5946 169.445 32.4205 169.436 33.3206V36.1126C169.436 37.2836 169.651 38.2886 170.079 39.1275C170.507 39.9577 171.106 40.5956 171.875 41.0413C172.644 41.4783 173.544 41.6967 174.575 41.6967C175.265 41.6967 175.89 41.6006 176.449 41.4083C177.009 41.2073 177.494 40.9146 177.904 40.5301C178.315 40.1456 178.625 39.6693 178.835 39.1013L183.266 39.5994C182.986 40.7704 182.453 41.7929 181.666 42.6667C180.889 43.5319 179.892 44.2048 178.678 44.6854C177.463 45.1573 176.074 45.3932 174.509 45.3932ZM196.39 45.3932C194.372 45.3932 192.628 44.9738 191.16 44.1349C189.701 43.2872 188.578 42.09 187.791 40.5432C187.005 38.9877 186.612 37.1569 186.612 35.0508C186.612 32.9797 187.005 31.1621 187.791 29.5978C188.586 28.0248 189.696 26.8014 191.121 25.9275C192.545 25.0449 194.219 24.6036 196.141 24.6036C197.382 24.6036 198.553 24.8046 199.654 25.2066C200.764 25.5998 201.743 26.2115 202.59 27.0417C203.447 27.8719 204.12 28.9293 204.609 30.2139C205.099 31.4898 205.343 33.0103 205.343 34.7756V36.2306H188.84V33.0322H200.795C200.786 32.1233 200.589 31.315 200.205 30.6072C199.82 29.8906 199.283 29.3269 198.592 28.9162C197.911 28.5055 197.116 28.3001 196.207 28.3001C195.237 28.3001 194.385 28.5361 193.651 29.0079C192.917 29.4711 192.344 30.0828 191.933 30.8431C191.531 31.5946 191.326 32.4205 191.317 33.3206V36.1126C191.317 37.2836 191.531 38.2886 191.96 39.1275C192.388 39.9577 192.986 40.5956 193.756 41.0413C194.525 41.4783 195.425 41.6967 196.456 41.6967C197.146 41.6967 197.771 41.6006 198.33 41.4083C198.89 41.2073 199.375 40.9146 199.785 40.5301C200.196 40.1456 200.506 39.6693 200.716 39.1013L205.147 39.5994C204.867 40.7704 204.334 41.7929 203.547 42.6667C202.77 43.5319 201.773 44.2048 200.559 44.6854C199.344 45.1573 197.955 45.3932 196.39 45.3932ZM213.683 38.6818L213.67 32.9535H214.43L221.666 24.8657H227.211L218.311 34.7756H217.327L213.683 38.6818ZM209.358 45V18.1543H214.103V45H209.358ZM221.994 45L215.44 35.8373L218.638 32.4947L227.67 45H221.994ZM238.458 45.3932C236.439 45.3932 234.696 44.9738 233.228 44.1349C231.768 43.2872 230.645 42.09 229.859 40.5432C229.072 38.9877 228.679 37.1569 228.679 35.0508C228.679 32.9797 229.072 31.1621 229.859 29.5978C230.654 28.0248 231.764 26.8014 233.188 25.9275C234.613 25.0449 236.286 24.6036 238.209 24.6036C239.45 24.6036 240.621 24.8046 241.722 25.2066C242.832 25.5998 243.81 26.2115 244.658 27.0417C245.514 27.8719 246.187 28.9293 246.677 30.2139C247.166 31.4898 247.411 33.0103 247.411 34.7756V36.2306H230.908V33.0322H242.862C242.854 32.1233 242.657 31.315 242.272 30.6072C241.888 29.8906 241.35 29.3269 240.66 28.9162C239.978 28.5055 239.183 28.3001 238.274 28.3001C237.304 28.3001 236.452 28.5361 235.718 29.0079C234.984 29.4711 234.412 30.0828 234.001 30.8431C233.599 31.5946 233.394 32.4205 233.385 33.3206V36.1126C233.385 37.2836 233.599 38.2886 234.027 39.1275C234.455 39.9577 235.054 40.5956 235.823 41.0413C236.592 41.4783 237.492 41.6967 238.523 41.6967C239.214 41.6967 239.839 41.6006 240.398 41.4083C240.957 41.2073 241.442 40.9146 241.853 40.5301C242.264 40.1456 242.574 39.6693 242.784 39.1013L247.214 39.5994C246.935 40.7704 246.401 41.7929 245.615 42.6667C244.837 43.5319 243.841 44.2048 242.626 44.6854C241.412 45.1573 240.022 45.3932 238.458 45.3932ZM251.425 45V24.8657H256.026V28.2215H256.236C256.603 27.0592 257.232 26.1635 258.124 25.5343C259.024 24.8963 260.05 24.5774 261.204 24.5774C261.466 24.5774 261.759 24.5905 262.082 24.6167C262.414 24.6342 262.69 24.6647 262.908 24.7084V29.0735C262.707 29.0036 262.388 28.9424 261.951 28.89C261.523 28.8288 261.108 28.7982 260.706 28.7982C259.841 28.7982 259.063 28.9861 258.373 29.3619C257.691 29.7289 257.154 30.2401 256.76 30.8955C256.367 31.5509 256.17 32.3069 256.17 33.1633V45H251.425Z" fill="#18191C"/>
</svg>
