<svg width="21" height="21" viewBox="0 0 21 21" fill="none" xmlns="http://www.w3.org/2000/svg">
<path d="M10.5218 11.1514C11.8641 11.1514 12.9523 10.0632 12.9523 8.72093C12.9523 7.37862 11.8641 6.29047 10.5218 6.29047C9.17953 6.29047 8.09137 7.37862 8.09137 8.72093C8.09137 10.0632 9.17953 11.1514 10.5218 11.1514Z" stroke="#767F8C" stroke-width="2.16042" stroke-linecap="round" stroke-linejoin="round"/>
<path d="M16.598 8.72095C16.598 14.1895 10.5219 18.4428 10.5219 18.4428C10.5219 18.4428 4.44568 14.1895 4.44568 8.72095C4.44568 7.10945 5.08584 5.56395 6.22535 4.42444C7.36485 3.28494 8.91035 2.64478 10.5219 2.64478C12.1334 2.64478 13.6788 3.28494 14.8184 4.42444C15.9579 5.56395 16.598 7.10945 16.598 8.72095V8.72095Z" stroke="#767F8C" stroke-width="2.16042" stroke-linecap="round" stroke-linejoin="round"/>
</svg>
