<svg width="1424" height="94" viewBox="0 0 1424 94" fill="none" xmlns="http://www.w3.org/2000/svg">
<path d="M3.66748 11.2549H11.8395L20.4706 32.3123H20.8379L29.469 11.2549H37.641V42.5962H31.2136V22.1968H30.9534L22.8426 42.4432H18.4659L10.3551 22.1203H10.0949V42.5962H3.66748V11.2549ZM53.5986 43.0553C51.2215 43.0553 49.1657 42.5503 47.4313 41.5403C45.7072 40.52 44.3758 39.1019 43.4372 37.2859C42.4986 35.4597 42.0292 33.3427 42.0292 30.935C42.0292 28.5069 42.4986 26.3848 43.4372 24.5688C44.3758 22.7426 45.7072 21.3245 47.4313 20.3145C49.1657 19.2942 51.2215 18.7841 53.5986 18.7841C55.9757 18.7841 58.0264 19.2942 59.7506 20.3145C61.485 21.3245 62.8215 22.7426 63.7601 24.5688C64.6987 26.3848 65.168 28.5069 65.168 30.935C65.168 33.3427 64.6987 35.4597 63.7601 37.2859C62.8215 39.1019 61.485 40.52 59.7506 41.5403C58.0264 42.5503 55.9757 43.0553 53.5986 43.0553ZM53.6292 38.0052C54.7107 38.0052 55.6136 37.6991 56.3379 37.087C57.0623 36.4646 57.6081 35.6178 57.9754 34.5466C58.3529 33.4754 58.5416 32.2562 58.5416 30.8891C58.5416 29.522 58.3529 28.3028 57.9754 27.2316C57.6081 26.1604 57.0623 25.3136 56.3379 24.6912C55.6136 24.0689 54.7107 23.7577 53.6292 23.7577C52.5376 23.7577 51.6194 24.0689 50.8746 24.6912C50.14 25.3136 49.584 26.1604 49.2065 27.2316C48.8393 28.3028 48.6556 29.522 48.6556 30.8891C48.6556 32.2562 48.8393 33.4754 49.2065 34.5466C49.584 35.6178 50.14 36.4646 50.8746 37.087C51.6194 37.6991 52.5376 38.0052 53.6292 38.0052ZM88.9647 25.7931L82.9964 26.1604C82.8944 25.6502 82.675 25.1911 82.3384 24.783C82.0017 24.3648 81.5579 24.0332 81.007 23.7883C80.4663 23.5333 79.8184 23.4057 79.0634 23.4057C78.0534 23.4057 77.2015 23.62 76.5078 24.0485C75.814 24.4668 75.4672 25.0279 75.4672 25.7319C75.4672 26.293 75.6916 26.7674 76.1405 27.1551C76.5894 27.5428 77.3597 27.8539 78.4513 28.0886L82.7057 28.9456C84.991 29.4149 86.6947 30.1698 87.817 31.2105C88.9392 32.2511 89.5004 33.6182 89.5004 35.3118C89.5004 36.8523 89.0464 38.2041 88.1384 39.3672C87.2406 40.5302 86.0061 41.4382 84.4349 42.0912C82.874 42.7339 81.0733 43.0553 79.0328 43.0553C75.9212 43.0553 73.442 42.4074 71.5954 41.1118C69.759 39.8059 68.6827 38.0307 68.3664 35.7862L74.7785 35.4495C74.9723 36.3983 75.4416 37.1227 76.1864 37.6226C76.9312 38.1123 77.8851 38.3572 79.0481 38.3572C80.1908 38.3572 81.109 38.1378 81.8028 37.6991C82.5067 37.2502 82.8638 36.6738 82.874 35.9698C82.8638 35.3781 82.6138 34.8935 82.1241 34.516C81.6344 34.1283 80.8795 33.8325 79.8592 33.6284L75.7885 32.8173C73.493 32.3582 71.7841 31.5624 70.6619 30.43C69.5498 29.2975 68.9938 27.8539 68.9938 26.0991C68.9938 24.5892 69.4019 23.2884 70.2181 22.1968C71.0445 21.1051 72.2024 20.2634 73.692 19.6717C75.1917 19.08 76.9465 18.7841 78.9563 18.7841C81.9252 18.7841 84.2615 19.4116 85.9653 20.6664C87.6793 21.9213 88.6791 23.6302 88.9647 25.7931ZM106.108 19.0902V23.9873H91.9527V19.0902H106.108ZM95.1664 13.4585H101.686V35.373C101.686 35.9749 101.777 36.4442 101.961 36.7809C102.145 37.1074 102.4 37.3369 102.726 37.4696C103.063 37.6022 103.451 37.6685 103.889 37.6685C104.195 37.6685 104.502 37.643 104.808 37.592C105.114 37.5308 105.348 37.4849 105.512 37.4543L106.537 42.3054C106.21 42.4074 105.751 42.5248 105.16 42.6574C104.568 42.8002 103.849 42.887 103.002 42.9176C101.431 42.9788 100.053 42.7696 98.8699 42.2901C97.6966 41.8106 96.7835 41.0659 96.1305 40.0558C95.4776 39.0458 95.1562 37.7705 95.1664 36.23V13.4585ZM120.451 42.5962V11.2549H132.817C135.194 11.2549 137.219 11.7089 138.892 12.6169C140.565 13.5147 141.84 14.7644 142.718 16.3662C143.605 17.9577 144.049 19.7941 144.049 21.8754C144.049 23.9567 143.6 25.7931 142.703 27.3846C141.805 28.9762 140.504 30.2158 138.8 31.1033C137.107 31.9909 135.056 32.4347 132.648 32.4347H124.767V27.1245H131.577C132.852 27.1245 133.903 26.9051 134.73 26.4664C135.566 26.0175 136.188 25.4003 136.597 24.6147C137.015 23.8189 137.224 22.9058 137.224 21.8754C137.224 20.8348 137.015 19.9268 136.597 19.1514C136.188 18.3658 135.566 17.7588 134.73 17.3303C133.893 16.8916 132.832 16.6723 131.546 16.6723H127.078V42.5962H120.451ZM158.473 43.0553C156.096 43.0553 154.04 42.5503 152.305 41.5403C150.581 40.52 149.25 39.1019 148.311 37.2859C147.373 35.4597 146.903 33.3427 146.903 30.935C146.903 28.5069 147.373 26.3848 148.311 24.5688C149.25 22.7426 150.581 21.3245 152.305 20.3145C154.04 19.2942 156.096 18.7841 158.473 18.7841C160.85 18.7841 162.901 19.2942 164.625 20.3145C166.359 21.3245 167.696 22.7426 168.634 24.5688C169.573 26.3848 170.042 28.5069 170.042 30.935C170.042 33.3427 169.573 35.4597 168.634 37.2859C167.696 39.1019 166.359 40.52 164.625 41.5403C162.901 42.5503 160.85 43.0553 158.473 43.0553ZM158.503 38.0052C159.585 38.0052 160.488 37.6991 161.212 37.087C161.936 36.4646 162.482 35.6178 162.849 34.5466C163.227 33.4754 163.416 32.2562 163.416 30.8891C163.416 29.522 163.227 28.3028 162.849 27.2316C162.482 26.1604 161.936 25.3136 161.212 24.6912C160.488 24.0689 159.585 23.7577 158.503 23.7577C157.412 23.7577 156.493 24.0689 155.749 24.6912C155.014 25.3136 154.458 26.1604 154.081 27.2316C153.713 28.3028 153.53 29.522 153.53 30.8891C153.53 32.2562 153.713 33.4754 154.081 34.5466C154.458 35.6178 155.014 36.4646 155.749 37.087C156.493 37.6991 157.412 38.0052 158.503 38.0052ZM174.281 51.4109V19.0902H180.709V23.0385H180.999C181.285 22.4059 181.698 21.7632 182.239 21.1102C182.79 20.4471 183.504 19.8962 184.381 19.4575C185.269 19.0086 186.371 18.7841 187.687 18.7841C189.401 18.7841 190.982 19.233 192.431 20.1308C193.88 21.0184 195.038 22.36 195.905 24.1556C196.772 25.941 197.206 28.1804 197.206 30.8738C197.206 33.4958 196.782 35.7097 195.935 37.5155C195.099 39.3111 193.956 40.6731 192.507 41.6015C191.069 42.5197 189.457 42.9788 187.672 42.9788C186.407 42.9788 185.33 42.7696 184.443 42.3513C183.565 41.933 182.846 41.4076 182.285 40.7751C181.724 40.1323 181.295 39.4845 180.999 38.8316H180.8V51.4109H174.281ZM180.663 30.8432C180.663 32.2409 180.856 33.4601 181.244 34.5007C181.632 35.5413 182.193 36.3524 182.928 36.9339C183.662 37.5053 184.555 37.7909 185.606 37.7909C186.667 37.7909 187.564 37.5002 188.299 36.9186C189.034 36.3269 189.59 35.5107 189.967 34.4701C190.355 33.4193 190.549 32.2103 190.549 30.8432C190.549 29.4863 190.36 28.2926 189.982 27.2622C189.605 26.2318 189.049 25.4258 188.314 24.8443C187.58 24.2627 186.677 23.972 185.606 23.972C184.545 23.972 183.647 24.2525 182.912 24.8137C182.188 25.3748 181.632 26.1706 181.244 27.201C180.856 28.2314 180.663 29.4455 180.663 30.8432ZM216.626 32.5878V19.0902H223.145V42.5962H216.886V38.3265H216.641C216.11 39.7039 215.228 40.8108 213.993 41.6474C212.769 42.484 211.275 42.9023 209.51 42.9023C207.938 42.9023 206.556 42.5452 205.362 41.831C204.169 41.1169 203.235 40.1017 202.562 38.7856C201.899 37.4696 201.562 35.8933 201.552 34.0569V19.0902H208.071V32.8938C208.081 34.2814 208.454 35.3781 209.188 36.1841C209.923 36.9901 210.907 37.393 212.142 37.393C212.927 37.393 213.662 37.2145 214.345 36.8574C215.029 36.4901 215.58 35.9494 215.998 35.2353C216.427 34.5211 216.636 33.6386 216.626 32.5878ZM234.879 11.2549V42.5962H228.359V11.2549H234.879ZM246.804 43.04C245.304 43.04 243.968 42.7798 242.794 42.2595C241.621 41.729 240.693 40.9485 240.009 39.9181C239.336 38.8775 238.999 37.5818 238.999 36.031C238.999 34.7251 239.239 33.6284 239.718 32.7408C240.198 31.8532 240.851 31.1391 241.677 30.5983C242.504 30.0576 243.442 29.6495 244.493 29.3741C245.554 29.0986 246.666 28.9048 247.829 28.7925C249.196 28.6497 250.298 28.5171 251.135 28.3946C251.971 28.262 252.578 28.0682 252.956 27.8131C253.333 27.5581 253.522 27.1806 253.522 26.6807V26.5888C253.522 25.6196 253.216 24.8698 252.604 24.3392C252.002 23.8087 251.145 23.5435 250.033 23.5435C248.86 23.5435 247.926 23.8036 247.232 24.3239C246.539 24.8341 246.08 25.4768 245.855 26.2522L239.826 25.7625C240.132 24.3341 240.734 23.0997 241.631 22.059C242.529 21.0082 243.687 20.2022 245.105 19.6411C246.534 19.0698 248.186 18.7841 250.064 18.7841C251.369 18.7841 252.619 18.9372 253.813 19.2432C255.017 19.5493 256.083 20.0237 257.011 20.6664C257.95 21.3092 258.69 22.1356 259.23 23.1456C259.771 24.1454 260.041 25.3442 260.041 26.7419V42.5962H253.859V39.3366H253.675C253.298 40.0711 252.793 40.719 252.16 41.2801C251.528 41.831 250.767 42.2646 249.88 42.5809C248.992 42.887 247.967 43.04 246.804 43.04ZM248.671 38.5408C249.63 38.5408 250.477 38.3521 251.211 37.9746C251.946 37.5869 252.522 37.0666 252.941 36.4136C253.359 35.7607 253.568 35.021 253.568 34.1946V31.7002C253.364 31.8328 253.083 31.9552 252.726 32.0675C252.379 32.1695 251.987 32.2664 251.548 32.3582C251.109 32.4398 250.671 32.5164 250.232 32.5878C249.793 32.649 249.395 32.7051 249.038 32.7561C248.273 32.8683 247.605 33.0469 247.033 33.2917C246.462 33.5366 246.018 33.8682 245.702 34.2865C245.386 34.6945 245.228 35.2047 245.228 35.8168C245.228 36.7044 245.549 37.3828 246.192 37.8521C246.845 38.3112 247.671 38.5408 248.671 38.5408ZM265.099 42.5962V19.0902H271.419V23.1915H271.664C272.093 21.7326 272.812 20.6307 273.822 19.886C274.832 19.131 275.995 18.7535 277.311 18.7535C277.638 18.7535 277.99 18.7739 278.367 18.8147C278.745 18.8555 279.076 18.9116 279.362 18.9831V24.7677C279.056 24.6759 278.632 24.5943 278.092 24.5229C277.551 24.4515 277.056 24.4158 276.607 24.4158C275.648 24.4158 274.791 24.6249 274.036 25.0432C273.291 25.4513 272.7 26.0226 272.261 26.7572C271.833 27.4917 271.618 28.3385 271.618 29.2975V42.5962H265.099ZM298.491 11.2549L306.066 35.0669H306.357L313.947 11.2549H321.293L310.489 42.5962H301.95L291.13 11.2549H298.491ZM329.037 43.04C327.537 43.04 326.2 42.7798 325.027 42.2595C323.854 41.729 322.925 40.9485 322.242 39.9181C321.569 38.8775 321.232 37.5818 321.232 36.031C321.232 34.7251 321.472 33.6284 321.951 32.7408C322.431 31.8532 323.084 31.1391 323.91 30.5983C324.736 30.0576 325.675 29.6495 326.726 29.3741C327.787 29.0986 328.899 28.9048 330.062 28.7925C331.429 28.6497 332.531 28.5171 333.367 28.3946C334.204 28.262 334.811 28.0682 335.189 27.8131C335.566 27.5581 335.755 27.1806 335.755 26.6807V26.5888C335.755 25.6196 335.449 24.8698 334.837 24.3392C334.235 23.8087 333.378 23.5435 332.266 23.5435C331.092 23.5435 330.159 23.8036 329.465 24.3239C328.771 24.8341 328.312 25.4768 328.088 26.2522L322.058 25.7625C322.364 24.3341 322.966 23.0997 323.864 22.059C324.762 21.0082 325.92 20.2022 327.338 19.6411C328.766 19.0698 330.419 18.7841 332.296 18.7841C333.602 18.7841 334.852 18.9372 336.046 19.2432C337.249 19.5493 338.316 20.0237 339.244 20.6664C340.183 21.3092 340.922 22.1356 341.463 23.1456C342.004 24.1454 342.274 25.3442 342.274 26.7419V42.5962H336.091V39.3366H335.908C335.53 40.0711 335.025 40.719 334.393 41.2801C333.76 41.831 333 42.2646 332.113 42.5809C331.225 42.887 330.2 43.04 329.037 43.04ZM330.904 38.5408C331.863 38.5408 332.709 38.3521 333.444 37.9746C334.179 37.5869 334.755 37.0666 335.173 36.4136C335.592 35.7607 335.801 35.021 335.801 34.1946V31.7002C335.597 31.8328 335.316 31.9552 334.959 32.0675C334.612 32.1695 334.219 32.2664 333.781 32.3582C333.342 32.4398 332.903 32.5164 332.465 32.5878C332.026 32.649 331.628 32.7051 331.271 32.7561C330.506 32.8683 329.838 33.0469 329.266 33.2917C328.695 33.5366 328.251 33.8682 327.935 34.2865C327.619 34.6945 327.46 35.2047 327.46 35.8168C327.46 36.7044 327.782 37.3828 328.425 37.8521C329.077 38.3112 329.904 38.5408 330.904 38.5408ZM357.952 43.0553C355.545 43.0553 353.474 42.5452 351.739 41.525C350.015 40.4945 348.689 39.0662 347.76 37.24C346.842 35.4138 346.383 33.3121 346.383 30.935C346.383 28.5273 346.847 26.4154 347.776 24.5994C348.714 22.7732 350.046 21.35 351.77 20.3298C353.494 19.2993 355.545 18.7841 357.922 18.7841C359.972 18.7841 361.768 19.1565 363.309 19.9013C364.849 20.646 366.068 21.6918 366.966 23.0385C367.864 24.3852 368.359 25.9665 368.451 27.7825H362.299C362.125 26.6093 361.666 25.6655 360.921 24.9514C360.187 24.227 359.223 23.8648 358.029 23.8648C357.019 23.8648 356.136 24.1403 355.381 24.6912C354.637 25.2319 354.055 26.0226 353.637 27.0633C353.219 28.1039 353.009 29.3639 353.009 30.8432C353.009 32.3429 353.213 33.6182 353.622 34.669C354.04 35.7199 354.626 36.5207 355.381 37.0717C356.136 37.6226 357.019 37.8981 358.029 37.8981C358.774 37.8981 359.442 37.745 360.034 37.4389C360.636 37.1329 361.13 36.6891 361.518 36.1076C361.916 35.5158 362.176 34.8068 362.299 33.9804H368.451C368.348 35.776 367.859 37.3573 366.981 38.7244C366.114 40.0813 364.915 41.1424 363.385 41.9075C361.855 42.6727 360.044 43.0553 357.952 43.0553ZM379.327 43.04C377.828 43.04 376.491 42.7798 375.318 42.2595C374.145 41.729 373.216 40.9485 372.533 39.9181C371.859 38.8775 371.523 37.5818 371.523 36.031C371.523 34.7251 371.762 33.6284 372.242 32.7408C372.721 31.8532 373.374 31.1391 374.201 30.5983C375.027 30.0576 375.966 29.6495 377.017 29.3741C378.078 29.0986 379.19 28.9048 380.353 28.7925C381.72 28.6497 382.822 28.5171 383.658 28.3946C384.495 28.262 385.102 28.0682 385.479 27.8131C385.857 27.5581 386.046 27.1806 386.046 26.6807V26.5888C386.046 25.6196 385.739 24.8698 385.127 24.3392C384.525 23.8087 383.668 23.5435 382.556 23.5435C381.383 23.5435 380.45 23.8036 379.756 24.3239C379.062 24.8341 378.603 25.4768 378.379 26.2522L372.349 25.7625C372.655 24.3341 373.257 23.0997 374.155 22.059C375.053 21.0082 376.211 20.2022 377.629 19.6411C379.057 19.0698 380.71 18.7841 382.587 18.7841C383.893 18.7841 385.143 18.9372 386.336 19.2432C387.54 19.5493 388.606 20.0237 389.535 20.6664C390.473 21.3092 391.213 22.1356 391.754 23.1456C392.294 24.1454 392.565 25.3442 392.565 26.7419V42.5962H386.382V39.3366H386.199C385.821 40.0711 385.316 40.719 384.684 41.2801C384.051 41.831 383.291 42.2646 382.403 42.5809C381.516 42.887 380.49 43.04 379.327 43.04ZM381.194 38.5408C382.153 38.5408 383 38.3521 383.735 37.9746C384.469 37.5869 385.046 37.0666 385.464 36.4136C385.882 35.7607 386.091 35.021 386.091 34.1946V31.7002C385.887 31.8328 385.607 31.9552 385.25 32.0675C384.903 32.1695 384.51 32.2664 384.071 32.3582C383.633 32.4398 383.194 32.5164 382.755 32.5878C382.317 32.649 381.919 32.7051 381.562 32.7561C380.797 32.8683 380.128 33.0469 379.557 33.2917C378.986 33.5366 378.542 33.8682 378.226 34.2865C377.909 34.6945 377.751 35.2047 377.751 35.8168C377.751 36.7044 378.073 37.3828 378.715 37.8521C379.368 38.3112 380.195 38.5408 381.194 38.5408ZM404.142 29.0068V42.5962H397.623V19.0902H403.836V23.2374H404.111C404.632 21.8703 405.504 20.7889 406.728 19.9931C407.952 19.1871 409.437 18.7841 411.181 18.7841C412.814 18.7841 414.237 19.1412 415.451 19.8554C416.665 20.5695 417.609 21.5897 418.282 22.916C418.955 24.2321 419.292 25.8033 419.292 27.6295V42.5962H412.773V28.7925C412.783 27.354 412.416 26.2318 411.671 25.4258C410.926 24.6096 409.901 24.2015 408.595 24.2015C407.718 24.2015 406.942 24.3903 406.269 24.7677C405.606 25.1452 405.086 25.6962 404.708 26.4205C404.341 27.1347 404.152 27.9968 404.142 29.0068ZM435.051 43.0553C432.643 43.0553 430.572 42.5452 428.838 41.525C427.113 40.4945 425.787 39.0662 424.859 37.24C423.941 35.4138 423.481 33.3121 423.481 30.935C423.481 28.5273 423.946 26.4154 424.874 24.5994C425.813 22.7732 427.144 21.35 428.868 20.3298C430.592 19.2993 432.643 18.7841 435.02 18.7841C437.071 18.7841 438.866 19.1565 440.407 19.9013C441.948 20.646 443.167 21.6918 444.065 23.0385C444.962 24.3852 445.457 25.9665 445.549 27.7825H439.397C439.224 26.6093 438.764 25.6655 438.02 24.9514C437.285 24.227 436.321 23.8648 435.127 23.8648C434.117 23.8648 433.235 24.1403 432.48 24.6912C431.735 25.2319 431.154 26.0226 430.735 27.0633C430.317 28.1039 430.108 29.3639 430.108 30.8432C430.108 32.3429 430.312 33.6182 430.72 34.669C431.138 35.7199 431.725 36.5207 432.48 37.0717C433.235 37.6226 434.117 37.8981 435.127 37.8981C435.872 37.8981 436.54 37.745 437.132 37.4389C437.734 37.1329 438.229 36.6891 438.617 36.1076C439.014 35.5158 439.275 34.8068 439.397 33.9804H445.549C445.447 35.776 444.957 37.3573 444.08 38.7244C443.213 40.0813 442.014 41.1424 440.484 41.9075C438.953 42.6727 437.142 43.0553 435.051 43.0553ZM449.723 42.5962V19.0902H456.242V42.5962H449.723ZM452.998 16.0601C452.029 16.0601 451.197 15.7387 450.503 15.096C449.82 14.4431 449.478 13.6626 449.478 12.7546C449.478 11.8568 449.82 11.0865 450.503 10.4438C451.197 9.79083 452.029 9.46436 452.998 9.46436C453.967 9.46436 454.793 9.79083 455.477 10.4438C456.171 11.0865 456.518 11.8568 456.518 12.7546C456.518 13.6626 456.171 14.4431 455.477 15.096C454.793 15.7387 453.967 16.0601 452.998 16.0601ZM472.177 43.0553C469.759 43.0553 467.678 42.5656 465.933 41.5862C464.199 40.5965 462.862 39.1988 461.924 37.393C460.985 35.577 460.516 33.4295 460.516 30.9503C460.516 28.5324 460.985 26.4103 461.924 24.5841C462.862 22.7579 464.183 21.3347 465.887 20.3145C467.601 19.2942 469.611 18.7841 471.917 18.7841C473.467 18.7841 474.911 19.0341 476.248 19.534C477.594 20.0237 478.768 20.7634 479.767 21.753C480.777 22.7426 481.563 23.9873 482.124 25.487C482.685 26.9765 482.966 28.7211 482.966 30.7208V32.5113H463.117V28.4712H476.829C476.829 27.5326 476.625 26.7011 476.217 25.9767C475.809 25.2524 475.243 24.6861 474.518 24.278C473.804 23.8597 472.973 23.6506 472.024 23.6506C471.034 23.6506 470.157 23.8801 469.392 24.3392C468.637 24.7881 468.045 25.3952 467.616 26.1604C467.188 26.9153 466.969 27.757 466.958 28.6854V32.5266C466.958 33.6896 467.173 34.6945 467.601 35.5413C468.04 36.3881 468.657 37.0411 469.453 37.5002C470.249 37.9593 471.192 38.1888 472.284 38.1888C473.008 38.1888 473.671 38.0868 474.273 37.8827C474.875 37.6787 475.391 37.3726 475.819 36.9645C476.248 36.5565 476.574 36.0565 476.798 35.4648L482.828 35.8627C482.522 37.3114 481.895 38.5765 480.946 39.6579C480.007 40.7292 478.793 41.5658 477.303 42.1677C475.824 42.7594 474.115 43.0553 472.177 43.0553ZM506.778 25.7931L500.809 26.1604C500.707 25.6502 500.488 25.1911 500.151 24.783C499.815 24.3648 499.371 24.0332 498.82 23.7883C498.279 23.5333 497.631 23.4057 496.877 23.4057C495.866 23.4057 495.015 23.62 494.321 24.0485C493.627 24.4668 493.28 25.0279 493.28 25.7319C493.28 26.293 493.505 26.7674 493.954 27.1551C494.402 27.5428 495.173 27.8539 496.264 28.0886L500.519 28.9456C502.804 29.4149 504.508 30.1698 505.63 31.2105C506.752 32.2511 507.313 33.6182 507.313 35.3118C507.313 36.8523 506.859 38.2041 505.951 39.3672C505.054 40.5302 503.819 41.4382 502.248 42.0912C500.687 42.7339 498.886 43.0553 496.846 43.0553C493.734 43.0553 491.255 42.4074 489.408 41.1118C487.572 39.8059 486.496 38.0307 486.179 35.7862L492.592 35.4495C492.785 36.3983 493.255 37.1227 493.999 37.6226C494.744 38.1123 495.698 38.3572 496.861 38.3572C498.004 38.3572 498.922 38.1378 499.616 37.6991C500.32 37.2502 500.677 36.6738 500.687 35.9698C500.677 35.3781 500.427 34.8935 499.937 34.516C499.447 34.1283 498.693 33.8325 497.672 33.6284L493.602 32.8173C491.306 32.3582 489.597 31.5624 488.475 30.43C487.363 29.2975 486.807 27.8539 486.807 26.0991C486.807 24.5892 487.215 23.2884 488.031 22.1968C488.858 21.1051 490.015 20.2634 491.505 19.6717C493.005 19.08 494.76 18.7841 496.769 18.7841C499.738 18.7841 502.075 19.4116 503.778 20.6664C505.492 21.9213 506.492 23.6302 506.778 25.7931Z" fill="#000300"/>
<rect x="0.943481" y="80.5962" width="142" height="13" fill="#0A65CC"/>
</svg>
