<svg width="80" height="32" viewBox="0 0 80 32" fill="none" xmlns="http://www.w3.org/2000/svg">
<g clip-path="url(#clip0_1619_1929)">
<path fill-rule="evenodd" clip-rule="evenodd" d="M32 16C32 7.16267 24.8373 0 16 0C7.16267 0 0 7.16267 0 16C0 24.8373 7.16267 32 16 32C24.8373 32 32 24.8373 32 16ZM10.9333 16.6027C10.9333 12.6133 14.144 9.36 18.176 9.36C22.1653 9.36 25.4667 12.6133 25.4187 16.6027C25.4187 20.592 22.1653 23.8453 18.176 23.8453C14.1867 23.8453 10.9333 20.6347 10.9333 16.6027ZM10.9333 11.4667V16.6027V22.0107H8.368L5.06667 11.4667H10.9333ZM15.472 16.6027C15.472 18.0693 16.7093 19.3067 18.176 19.3067C19.6907 19.3067 20.88 18.0693 20.88 16.6027C20.88 15.136 19.6427 13.8987 18.176 13.8987C16.7093 13.8987 15.472 15.136 15.472 16.6027Z" fill="#8B3FFD"/>
</g>
<g clip-path="url(#clip1_1619_1929)">
<path fill-rule="evenodd" clip-rule="evenodd" d="M80 16C80 7.14667 72.8533 0 64 0C55.1467 0 48 7.14667 48 16C48 24.8533 55.1467 32 64 32C72.8533 32 80 24.8533 80 16ZM61.9733 10.8267H63.3067C63.5733 10.7733 63.84 10.7733 64.2133 10.7733H64.2133C64.16 11.1467 64.2667 11.5733 64.4267 12.1067C64.5867 12.5867 64.8533 13.1733 65.12 13.76L67.2 17.9733C67.5733 18.8267 68 19.68 68.4267 20.48H68.48C69.0133 19.6267 69.44 18.72 69.8667 17.76L71.5733 14.2933C71.9467 13.4933 72.2667 12.8 72.5333 12.2133C72.7467 11.68 72.9067 11.2 72.9067 10.7733C73.2267 10.8267 73.4933 10.8267 73.7067 10.8267H75.04C75.3067 10.7733 75.5733 10.7733 75.8933 10.7733H75.8933C75.9467 10.8267 75.9467 10.9333 75.9467 10.9867C75.9467 11.1467 75.9467 11.2 75.8933 11.2533H75.52C75.1467 11.3067 74.8267 11.36 74.6667 11.4667C74.5067 11.5733 74.4 11.7867 74.3467 12C74.2933 12.2133 74.2933 12.5333 74.2933 12.96V15.3067C74.3467 16.2133 74.4 17.12 74.4 18.1333C74.4 19.04 74.4533 20 74.5067 20.9067C74.5067 21.0828 74.5228 21.2428 74.5374 21.3867C74.5492 21.5041 74.56 21.6108 74.56 21.7067C74.6133 21.92 74.72 22.08 74.8267 22.1867C74.9333 22.2933 75.1467 22.4 75.4133 22.4H75.9467C76 22.5067 76 22.56 76 22.6667C76 22.7733 75.9467 22.8267 75.8933 22.88C75.7067 22.88 75.52 22.8667 75.3333 22.8533C75.1467 22.84 74.96 22.8267 74.7733 22.8267H72.64C72.4533 22.8267 72.2667 22.84 72.08 22.8533C71.8933 22.8667 71.7067 22.88 71.52 22.88C71.4133 22.8267 71.4133 22.72 71.4133 22.6667C71.4133 22.5067 71.4133 22.4533 71.4667 22.4L72 22.3467C72.32 22.2933 72.5333 22.24 72.64 22.1333C72.8 22.0267 72.8533 21.8667 72.8533 21.7067V20.8L72.8 13.1733C72.7885 13.1963 72.7746 13.2217 72.7587 13.2507C72.7007 13.3563 72.617 13.5089 72.5333 13.76L72.0533 14.72L72.0533 14.72C71.8933 15.04 71.7333 15.36 71.6267 15.6267L70.0267 18.8267C69.4933 19.84 69.0133 20.8 68.5333 21.8667L68.0533 22.9867C68 23.0933 67.84 23.0933 67.7333 22.9867C67.7333 22.9333 67.5733 22.4533 67.5733 22.4533C67.52 22.2933 67.4133 22.0267 67.3067 21.8133C67.0933 21.3867 66.88 20.96 66.6667 20.48C66.4533 20 66.2933 19.68 66.1333 19.36L64.48 15.84C64.3733 15.6267 64.28 15.4 64.1867 15.1733C64.0933 14.9467 64 14.72 63.8933 14.5067C63.7867 14.2933 63.6933 14.08 63.6 13.8667C63.5067 13.6533 63.4133 13.44 63.3067 13.2267H63.2533C63.2533 13.4933 63.24 13.76 63.2267 14.0267C63.2133 14.2933 63.2 14.56 63.2 14.8267C63.1467 15.36 63.0933 15.8933 63.0933 16.4267C63.0933 16.6709 63.0821 16.9488 63.07 17.25C63.0557 17.6063 63.04 17.9953 63.04 18.4C62.9867 19.1467 62.9867 19.9467 62.9867 20.6933C62.9867 21.0667 62.9867 21.6533 63.1467 22.0267C63.2 22.1333 63.2533 22.1867 63.3067 22.24C63.4667 22.3467 63.6267 22.4 63.84 22.4L64.6933 22.4533C64.8 22.56 64.8 22.6133 64.8 22.72C64.8 22.8267 64.7467 22.88 64.6933 22.9333C64.5395 22.9333 64.3857 22.921 64.2259 22.9082C64.0533 22.8944 63.8739 22.88 63.68 22.88H61.7067C61.5467 22.88 61.3867 22.8933 61.2267 22.9067C61.0667 22.92 60.9067 22.9333 60.7467 22.9333C60.64 22.88 60.64 22.7733 60.64 22.72C60.5867 22.56 60.64 22.5067 60.6933 22.4533L61.0667 22.4C61.2779 22.4 61.4557 22.3331 61.6 22.2787C61.6379 22.2645 61.6734 22.2511 61.7067 22.24C61.8133 22.1867 61.9733 22.08 62.0267 21.8667C62.3249 21.0713 62.4379 18.5151 62.495 17.2214C62.4992 17.1272 62.503 17.0397 62.5067 16.96C62.5102 16.9064 62.5138 16.8531 62.5174 16.8C62.5669 16.0603 62.6133 15.3669 62.6133 14.72C62.6133 14.3153 62.629 13.9577 62.6433 13.63C62.6555 13.3531 62.6667 13.0976 62.6667 12.8533C62.6667 12.48 62.6667 12.16 62.6133 11.9467C62.6133 11.7333 62.4533 11.5733 62.2933 11.4667C62.2691 11.4586 62.2424 11.4493 62.2133 11.4391C62.0501 11.3823 61.8101 11.2986 61.4933 11.2533H61.1733C61.12 11.1467 61.12 11.0933 61.12 10.9867C61.12 10.88 61.1733 10.7733 61.2267 10.7733C61.4933 10.8267 61.76 10.8267 61.9733 10.8267H61.9733ZM53.1733 21.6C53.2267 21.28 53.2267 20.8 53.2267 20.16V18.4C53.6533 18.4533 54.1867 18.4533 54.72 18.4533V20.2133V20.2133C54.72 20.8533 54.72 21.3333 54.7733 21.6533C54.8267 21.9733 54.9333 22.1867 55.0933 22.2933H55.1467C55.3067 22.4 55.5733 22.5067 56 22.5067L56.48 22.56C56.5333 22.6133 56.5333 22.72 56.5333 22.8267C56.513 22.8674 56.5004 22.9004 56.4896 22.9285C56.4722 22.9741 56.4596 23.007 56.4267 23.04C56 23.04 55.6 23.0267 55.2 23.0133C54.8 23 54.4 22.9867 53.9733 22.9867C53.2267 22.9867 52.5333 22.9867 51.7333 23.04C51.6267 22.9333 51.6267 22.6667 51.7333 22.56L52.1067 22.5067C52.6933 22.4533 53.12 22.24 53.1733 21.6ZM51.68 11.2533C51.5733 11.1467 51.5733 11.0933 51.5733 10.9867C51.5733 10.88 51.6267 10.8267 51.7333 10.7733C52.2133 10.72 52.8 10.6667 53.3867 10.6667H55.4133C56.16 10.6667 56.8533 10.72 57.44 10.8267C58.0267 10.9333 58.56 11.1467 58.9867 11.4133C59.4133 11.68 59.7333 12.0533 60 12.5333C60.2667 13.0133 60.4267 13.5467 60.4267 14.1867C60.3733 14.7733 60.2667 15.2 60.1067 15.6267C59.8933 16.0533 59.6267 16.3733 59.36 16.5867C58.88 16.9067 58.4 17.1733 57.9733 17.3867C57.4933 17.6 56.96 17.76 56.3733 17.8133C55.2533 17.9733 54.0267 18.0267 52.8 17.8667C52.0533 17.76 50.88 17.5467 49.28 17.2267C50.72 17.3867 52 17.4933 53.2267 17.4933C54.6133 17.5467 55.6267 17.44 56.3733 17.28C57.1733 17.12 57.7067 16.7467 58.08 16.2667C58.5067 15.7333 58.6667 15.04 58.6667 14.24C58.6667 13.3333 58.4 12.5867 57.92 12.0533C57.44 11.52 56.6933 11.2533 55.7333 11.2533H54.9867C54.8267 11.2533 54.72 11.36 54.72 11.4133C54.6667 11.52 54.6667 11.68 54.6667 11.8933V17.0133H53.1733V13.28C53.1733 12.9676 53.155 12.6918 53.1399 12.4633C53.1292 12.3017 53.12 12.1638 53.12 12.0533C53.12 11.7867 53.0133 11.6267 52.9067 11.52C52.8 11.4133 52.5867 11.3067 52.32 11.3067L51.68 11.2533Z" fill="#F01010"/>
</g>
<defs>
<clipPath id="clip0_1619_1929">
<rect width="32" height="32" fill="white"/>
</clipPath>
<clipPath id="clip1_1619_1929">
<rect width="32" height="32" fill="white" transform="translate(48)"/>
</clipPath>
</defs>
</svg>
