<svg width="34" height="34" viewBox="0 0 34 34" fill="none" xmlns="http://www.w3.org/2000/svg">
<g clip-path="url(#clip0_1995_13857)">
<path d="M17.2787 12.4109C19.8693 9.89084 24.0208 9.94814 26.5409 12.5388C29.0491 15.1172 29.0875 19.1994 26.4847 21.7313C23.894 24.2514 19.7426 24.1941 17.2225 21.6034C16.8527 21.2233 16.542 20.7948 16.2872 20.3497C15.7907 20.7988 15.0239 20.7774 14.5533 20.2937L13.3331 19.0393L12.0787 20.2595C11.5838 20.7409 10.7925 20.73 10.3111 20.2351L9.09084 18.9807L8.19484 19.8523C7.50205 20.5262 6.39412 20.5109 5.7202 19.8181L3.977 18.0261C3.30308 17.3334 3.31838 16.2254 4.01117 15.5515L5.56777 14.0373C6.09053 13.5288 6.79396 13.2487 7.52321 13.2588L16.3411 13.3805C16.4181 13.3816 16.504 13.3435 16.5643 13.2599C16.7686 12.9771 17.0011 12.6809 17.2787 12.4109ZM24.9103 17.9616C25.4051 17.4802 25.416 16.6888 24.9347 16.194C24.4533 15.6991 23.6619 15.6882 23.1671 16.1696C22.6723 16.651 22.6613 17.4423 23.1427 17.9372C23.624 18.432 24.4154 18.443 24.9103 17.9616Z" fill="#656565"/>
</g>
<defs>
<clipPath id="clip0_1995_13857">
<rect width="24" height="24" fill="white" transform="translate(17.2031) rotate(45.7909)"/>
</clipPath>
</defs>
</svg>
