<svg width="366" height="67" viewBox="0 0 366 67" fill="none" xmlns="http://www.w3.org/2000/svg">
<rect x="1.13228" y="1.21186" width="364.089" height="64.1138" rx="13.5162" stroke="#CCCCCC" stroke-width="1.42275"/>
<path d="M49.7436 30.0676V33.5059H52.8262C53.0633 33.5059 53.1819 33.743 53.1819 33.9802L52.7076 36.2329C52.7076 36.3514 52.4705 36.47 52.352 36.47H49.7436V45.1251H46.1867V36.5886H44.1711C43.934 36.5886 43.8154 36.47 43.8154 36.2329V33.9802C43.8154 33.743 43.934 33.6245 44.1711 33.6245H46.1867V29.7119C46.1867 27.6963 47.728 26.155 49.7436 26.155H52.9448C53.1819 26.155 53.3005 26.2736 53.3005 26.5107V29.3562C53.3005 29.5933 53.1819 29.7119 52.9448 29.7119H50.0993C49.8621 29.7119 49.7436 29.8305 49.7436 30.0676Z" stroke="#0A65CC" stroke-width="2.13413" stroke-miterlimit="10" stroke-linecap="round"/>
<path d="M50.9288 45.1252H43.815C37.8869 45.1252 35.5156 42.7539 35.5156 36.8258V29.712C35.5156 23.7839 37.8869 21.4126 43.815 21.4126H50.9288C56.8569 21.4126 59.2282 23.7839 59.2282 29.712V36.8258C59.2282 42.7539 56.8569 45.1252 50.9288 45.1252Z" stroke="#0A65CC" stroke-width="2.13413" stroke-linecap="round" stroke-linejoin="round"/>
<path d="M98.2677 29.352C98.1707 28.5329 97.7772 27.897 97.0874 27.4443C96.3976 26.9916 95.5515 26.7652 94.5491 26.7652C93.8162 26.7652 93.1748 26.8838 92.6251 27.1209C92.0808 27.358 91.6551 27.6841 91.3479 28.099C91.0461 28.514 90.8952 28.9856 90.8952 29.5137C90.8952 29.9556 91.0003 30.3356 91.2105 30.6535C91.426 30.9661 91.7009 31.2275 92.035 31.4377C92.3692 31.6425 92.7195 31.8122 93.0859 31.9469C93.4524 32.0763 93.7892 32.1814 94.0964 32.2622L95.7778 32.7149C96.209 32.8281 96.6886 32.9844 97.2168 33.1838C97.7503 33.3832 98.2596 33.6553 98.7446 34.0002C99.235 34.3398 99.6392 34.7763 99.9572 35.3098C100.275 35.8434 100.434 36.4981 100.434 37.2742C100.434 38.1688 100.2 38.9772 99.7308 39.6993C99.2674 40.4215 98.5883 40.9954 97.6937 41.4212C96.8045 41.8469 95.7239 42.0598 94.4521 42.0598C93.2665 42.0598 92.2398 41.8685 91.3722 41.4859C90.5099 41.1032 89.8308 40.5697 89.335 39.8853C88.8446 39.2008 88.5671 38.4059 88.5024 37.5005H90.5719C90.6257 38.1257 90.8359 38.6431 91.2024 39.0526C91.5743 39.4568 92.0431 39.7586 92.609 39.958C93.1802 40.152 93.7946 40.249 94.4521 40.249C95.2174 40.249 95.9045 40.1251 96.5135 39.8772C97.1224 39.6239 97.6048 39.2736 97.9605 38.8263C98.3162 38.3736 98.494 37.8454 98.494 37.2419C98.494 36.6922 98.3404 36.2449 98.0332 35.8999C97.726 35.555 97.3219 35.2748 96.8207 35.0592C96.3195 34.8437 95.7778 34.655 95.1958 34.4934L93.1587 33.9113C91.8653 33.5395 90.8413 33.0086 90.0868 32.3188C89.3323 31.629 88.9551 30.7263 88.9551 29.6107C88.9551 28.6838 89.2057 27.8754 89.7069 27.1856C90.2135 26.4904 90.8925 25.9514 91.744 25.5688C92.6009 25.1808 93.5575 24.9868 94.6138 24.9868C95.6808 24.9868 96.6293 25.1781 97.4593 25.5607C98.2892 25.938 98.9467 26.4553 99.4317 27.1128C99.9221 27.7703 100.181 28.5167 100.208 29.352H98.2677ZM103.472 41.7688V29.352H105.379V41.7688H103.472ZM104.442 27.2826C104.07 27.2826 103.749 27.1559 103.48 26.9026C103.216 26.6493 103.084 26.3449 103.084 25.9892C103.084 25.6335 103.216 25.329 103.48 25.0757C103.749 24.8224 104.07 24.6958 104.442 24.6958C104.814 24.6958 105.131 24.8224 105.396 25.0757C105.665 25.329 105.8 25.6335 105.8 25.9892C105.8 26.3449 105.665 26.6493 105.396 26.9026C105.131 27.1559 104.814 27.2826 104.442 27.2826ZM113.886 46.6838C112.964 46.6838 112.172 46.5652 111.509 46.3281C110.846 46.0963 110.294 45.7892 109.852 45.4065C109.415 45.0293 109.068 44.6251 108.809 44.1939L110.329 43.1269C110.501 43.3532 110.719 43.6119 110.984 43.9029C111.248 44.1993 111.609 44.4553 112.067 44.6709C112.53 44.8919 113.137 45.0023 113.886 45.0023C114.888 45.0023 115.715 44.7598 116.367 44.2748C117.019 43.7898 117.345 43.0299 117.345 41.9951V39.473H117.184C117.044 39.6993 116.844 39.9796 116.586 40.3137C116.332 40.6425 115.966 40.9362 115.486 41.1948C115.012 41.4481 114.371 41.5748 113.562 41.5748C112.56 41.5748 111.66 41.3377 110.862 40.8634C110.07 40.3892 109.442 39.6993 108.979 38.794C108.521 37.8886 108.292 36.7892 108.292 35.4957C108.292 34.2239 108.515 33.1164 108.963 32.1733C109.41 31.2248 110.032 30.4919 110.83 29.9745C111.628 29.4517 112.549 29.1904 113.595 29.1904C114.403 29.1904 115.044 29.3251 115.519 29.5946C115.998 29.8586 116.365 30.1604 116.618 30.4999C116.877 30.8341 117.076 31.1089 117.216 31.3245H117.41V29.352H119.253V42.1245C119.253 43.1916 119.011 44.0592 118.526 44.7275C118.046 45.4011 117.399 45.8942 116.586 46.2068C115.777 46.5248 114.877 46.6838 113.886 46.6838ZM113.821 39.861C114.586 39.861 115.233 39.6859 115.761 39.3356C116.289 38.9853 116.691 38.4814 116.966 37.8239C117.24 37.1664 117.378 36.3796 117.378 35.4634C117.378 34.5688 117.243 33.7793 116.974 33.0949C116.704 32.4104 116.305 31.8742 115.777 31.4862C115.249 31.0981 114.597 30.9041 113.821 30.9041C113.013 30.9041 112.339 31.1089 111.8 31.5185C111.266 31.9281 110.865 32.4778 110.595 33.1676C110.331 33.8574 110.199 34.6227 110.199 35.4634C110.199 36.3257 110.334 37.0883 110.604 37.7511C110.878 38.4086 111.283 38.926 111.816 39.3032C112.355 39.6751 113.023 39.861 113.821 39.861ZM124.653 34.2993V41.7688H122.745V29.352H124.589V31.2922H124.75C125.041 30.6616 125.483 30.155 126.076 29.7724C126.669 29.3844 127.434 29.1904 128.372 29.1904C129.213 29.1904 129.948 29.3628 130.579 29.7077C131.209 30.0473 131.7 30.5646 132.05 31.2598C132.4 31.9496 132.575 32.8227 132.575 33.879V41.7688H130.668V34.0083C130.668 33.0329 130.414 32.273 129.908 31.7287C129.401 31.179 128.706 30.9041 127.822 30.9041C127.213 30.9041 126.669 31.0362 126.189 31.3002C125.715 31.5643 125.34 31.9496 125.066 32.4562C124.791 32.9628 124.653 33.5772 124.653 34.2993ZM150.289 36.6922V29.352H152.197V41.7688H150.289V39.667H150.16C149.869 40.2975 149.416 40.8338 148.802 41.2757C148.187 41.7122 147.411 41.9305 146.474 41.9305C145.697 41.9305 145.008 41.7607 144.404 41.4212C143.8 41.0763 143.326 40.5589 142.981 39.8691C142.636 39.1739 142.464 38.2981 142.464 37.2419V29.352H144.372V37.1125C144.372 38.0179 144.625 38.7401 145.132 39.279C145.644 39.8179 146.296 40.0874 147.088 40.0874C147.562 40.0874 148.044 39.9661 148.535 39.7236C149.031 39.4811 149.446 39.1092 149.78 38.608C150.119 38.1068 150.289 37.4682 150.289 36.6922ZM155.691 46.4251V29.352H157.534V31.3245H157.761C157.901 31.1089 158.095 30.8341 158.343 30.4999C158.596 30.1604 158.957 29.8586 159.426 29.5946C159.9 29.3251 160.541 29.1904 161.35 29.1904C162.395 29.1904 163.317 29.4517 164.114 29.9745C164.912 30.4973 165.535 31.2383 165.982 32.1975C166.429 33.1568 166.653 34.2886 166.653 35.5928C166.653 36.9077 166.429 38.0475 165.982 39.0122C165.535 39.9715 164.915 40.7152 164.123 41.2434C163.33 41.7661 162.417 42.0275 161.382 42.0275C160.585 42.0275 159.946 41.8954 159.466 41.6314C158.987 41.3619 158.617 41.0574 158.359 40.7179C158.1 40.373 157.901 40.0874 157.761 39.861H157.599V46.4251H155.691ZM157.567 35.5604C157.567 36.4981 157.704 37.3254 157.979 38.0422C158.254 38.7535 158.655 39.3113 159.183 39.7155C159.711 40.1143 160.358 40.3137 161.123 40.3137C161.921 40.3137 162.587 40.1035 163.12 39.6832C163.659 39.2574 164.063 38.6862 164.333 37.9694C164.608 37.2472 164.745 36.4443 164.745 35.5604C164.745 34.6874 164.61 33.9005 164.341 33.1999C164.077 32.494 163.675 31.9362 163.136 31.5266C162.603 31.1116 161.932 30.9041 161.123 30.9041C160.347 30.9041 159.695 31.1008 159.167 31.4943C158.639 31.8823 158.24 32.4266 157.971 33.1272C157.701 33.8224 157.567 34.6335 157.567 35.5604ZM178.779 41.7688L174.995 29.352H177L179.684 38.8586H179.813L182.465 29.352H184.502L187.121 38.8263H187.25L189.934 29.352H191.939L188.156 41.7688H186.28L183.564 32.2299H183.37L180.654 41.7688H178.779ZM194.461 41.7688V29.352H196.369V41.7688H194.461ZM195.431 27.2826C195.059 27.2826 194.739 27.1559 194.469 26.9026C194.205 26.6493 194.073 26.3449 194.073 25.9892C194.073 25.6335 194.205 25.329 194.469 25.0757C194.739 24.8224 195.059 24.6958 195.431 24.6958C195.803 24.6958 196.121 24.8224 196.385 25.0757C196.655 25.329 196.789 25.6335 196.789 25.9892C196.789 26.3449 196.655 26.6493 196.385 26.9026C196.121 27.1559 195.803 27.2826 195.431 27.2826ZM205.263 29.352V30.9688H198.828V29.352H205.263ZM200.704 26.3772H202.612V38.2119C202.612 38.7508 202.69 39.155 202.846 39.4245C203.008 39.6886 203.213 39.8664 203.46 39.958C203.714 40.0442 203.981 40.0874 204.261 40.0874C204.471 40.0874 204.643 40.0766 204.778 40.055C204.913 40.0281 205.021 40.0065 205.101 39.9904L205.489 41.7041C205.36 41.7526 205.18 41.8011 204.948 41.8496C204.716 41.9035 204.422 41.9305 204.067 41.9305C203.528 41.9305 203 41.8146 202.482 41.5829C201.97 41.3511 201.545 40.9981 201.205 40.5239C200.871 40.0496 200.704 39.4514 200.704 38.7293V26.3772ZM210.307 34.2993V41.7688H208.4V25.2131H210.307V31.2922H210.469C210.76 30.6508 211.197 30.1416 211.779 29.7643C212.366 29.3817 213.148 29.1904 214.123 29.1904C214.969 29.1904 215.71 29.3601 216.346 29.6996C216.982 30.0338 217.475 30.5484 217.825 31.2437C218.181 31.9335 218.359 32.8119 218.359 33.879V41.7688H216.451V34.0083C216.451 33.0221 216.195 32.2595 215.683 31.7206C215.177 31.1763 214.473 30.9041 213.573 30.9041C212.948 30.9041 212.388 31.0362 211.892 31.3002C211.401 31.5643 211.013 31.9496 210.728 32.4562C210.448 32.9628 210.307 33.5772 210.307 34.2993ZM228.51 41.7688V25.2131H238.437V26.9916H230.515V32.5856H237.693V34.364H230.515V41.7688H228.51ZM245.266 42.0598C244.479 42.0598 243.765 41.9116 243.124 41.6152C242.482 41.3134 241.973 40.8796 241.596 40.3137C241.219 39.7425 241.03 39.0526 241.03 38.2443C241.03 37.5329 241.17 36.9562 241.45 36.5143C241.731 36.067 242.105 35.7167 242.574 35.4634C243.043 35.2101 243.56 35.0215 244.126 34.8975C244.697 34.7682 245.271 34.6658 245.848 34.5904C246.602 34.4934 247.214 34.4206 247.683 34.3721C248.157 34.3182 248.502 34.2293 248.718 34.1053C248.939 33.9814 249.049 33.7658 249.049 33.4586V33.394C249.049 32.5964 248.831 31.9766 248.394 31.5347C247.963 31.0928 247.308 30.8718 246.43 30.8718C245.519 30.8718 244.805 31.0712 244.288 31.47C243.77 31.8688 243.407 32.2946 243.197 32.7472L241.386 32.1005C241.709 31.3461 242.14 30.7586 242.679 30.3383C243.223 29.9125 243.816 29.6161 244.458 29.449C245.104 29.2766 245.74 29.1904 246.365 29.1904C246.764 29.1904 247.222 29.2389 247.74 29.3359C248.262 29.4275 248.766 29.6188 249.251 29.9098C249.742 30.2008 250.149 30.6401 250.472 31.2275C250.795 31.8149 250.957 32.6017 250.957 33.588V41.7688H249.049V40.0874H248.952C248.823 40.3568 248.607 40.6451 248.305 40.9523C248.004 41.2595 247.602 41.5209 247.101 41.7365C246.6 41.952 245.988 42.0598 245.266 42.0598ZM245.557 40.346C246.311 40.346 246.947 40.1978 247.465 39.9014C247.988 39.605 248.381 39.2224 248.645 38.7535C248.914 38.2847 249.049 37.7916 249.049 37.2742V35.5281C248.968 35.6251 248.791 35.714 248.516 35.7949C248.246 35.8703 247.934 35.9377 247.578 35.9969C247.228 36.0508 246.885 36.0993 246.551 36.1425C246.223 36.1802 245.956 36.2125 245.751 36.2395C245.255 36.3041 244.792 36.4092 244.361 36.5547C243.935 36.6949 243.59 36.9077 243.326 37.1934C243.067 37.4736 242.938 37.8562 242.938 38.3413C242.938 39.0041 243.183 39.5053 243.673 39.8448C244.169 40.179 244.797 40.346 245.557 40.346ZM259.483 42.0275C258.319 42.0275 257.317 41.7526 256.476 41.2029C255.635 40.6532 254.989 39.896 254.536 38.9314C254.083 37.9667 253.857 36.8646 253.857 35.6251C253.857 34.364 254.089 33.2511 254.552 32.2865C255.021 31.3164 255.673 30.5592 256.509 30.0149C257.349 29.4652 258.33 29.1904 259.451 29.1904C260.324 29.1904 261.111 29.352 261.812 29.6754C262.512 29.9987 263.086 30.4514 263.533 31.0335C263.981 31.6155 264.258 32.2946 264.366 33.0706H262.458C262.313 32.5047 261.989 32.0035 261.488 31.567C260.992 31.1251 260.324 30.9041 259.483 30.9041C258.74 30.9041 258.088 31.0981 257.527 31.4862C256.972 31.8688 256.538 32.4104 256.226 33.111C255.918 33.8062 255.765 34.6227 255.765 35.5604C255.765 36.5197 255.916 37.355 256.218 38.0664C256.525 38.7778 256.956 39.3302 257.511 39.7236C258.071 40.117 258.729 40.3137 259.483 40.3137C259.979 40.3137 260.429 40.2275 260.833 40.055C261.238 39.8826 261.58 39.6347 261.86 39.3113C262.14 38.988 262.34 38.5999 262.458 38.1472H264.366C264.258 38.8802 263.991 39.5404 263.566 40.1278C263.145 40.7098 262.588 41.1733 261.892 41.5182C261.203 41.8577 260.4 42.0275 259.483 42.0275ZM272.361 42.0275C271.165 42.0275 270.132 41.7634 269.265 41.2353C268.403 40.7017 267.737 39.958 267.268 39.0041C266.805 38.0448 266.573 36.9293 266.573 35.6574C266.573 34.3856 266.805 33.2646 267.268 32.2946C267.737 31.3191 268.389 30.5592 269.224 30.0149C270.065 29.4652 271.046 29.1904 272.167 29.1904C272.814 29.1904 273.452 29.2982 274.083 29.5137C274.713 29.7293 275.287 30.0796 275.805 30.5646C276.322 31.0443 276.734 31.6802 277.041 32.4724C277.349 33.2646 277.502 34.2401 277.502 35.3987V36.2071H267.931V34.558H275.562C275.562 33.8574 275.422 33.2323 275.142 32.6826C274.867 32.1329 274.474 31.699 273.962 31.3811C273.455 31.0631 272.857 30.9041 272.167 30.9041C271.407 30.9041 270.75 31.0928 270.194 31.47C269.645 31.8419 269.222 32.3269 268.925 32.9251C268.629 33.5233 268.481 34.1646 268.481 34.849V35.9484C268.481 36.8862 268.642 37.6811 268.966 38.3332C269.294 38.9799 269.75 39.473 270.332 39.8125C270.914 40.1466 271.59 40.3137 272.361 40.3137C272.862 40.3137 273.315 40.2437 273.719 40.1035C274.129 39.958 274.482 39.7425 274.778 39.4568C275.074 39.1658 275.303 38.8047 275.465 38.3736L277.308 38.891C277.114 39.5161 276.788 40.0658 276.33 40.5401C275.872 41.0089 275.306 41.3754 274.632 41.6395C273.959 41.8981 273.202 42.0275 272.361 42.0275ZM280.663 41.7688V25.2131H282.571V31.3245H282.732C282.873 31.1089 283.067 30.8341 283.315 30.4999C283.568 30.1604 283.929 29.8586 284.398 29.5946C284.872 29.3251 285.513 29.1904 286.322 29.1904C287.367 29.1904 288.289 29.4517 289.086 29.9745C289.884 30.4973 290.506 31.2383 290.954 32.1975C291.401 33.1568 291.625 34.2886 291.625 35.5928C291.625 36.9077 291.401 38.0475 290.954 39.0122C290.506 39.9715 289.887 40.7152 289.094 41.2434C288.302 41.7661 287.389 42.0275 286.354 42.0275C285.556 42.0275 284.918 41.8954 284.438 41.6314C283.959 41.3619 283.589 41.0574 283.331 40.7179C283.072 40.373 282.873 40.0874 282.732 39.861H282.506V41.7688H280.663ZM282.538 35.5604C282.538 36.4981 282.676 37.3254 282.951 38.0422C283.226 38.7535 283.627 39.3113 284.155 39.7155C284.683 40.1143 285.33 40.3137 286.095 40.3137C286.893 40.3137 287.559 40.1035 288.092 39.6832C288.631 39.2574 289.035 38.6862 289.305 37.9694C289.579 37.2472 289.717 36.4443 289.717 35.5604C289.717 34.6874 289.582 33.9005 289.313 33.1999C289.049 32.494 288.647 31.9362 288.108 31.5266C287.575 31.1116 286.904 30.9041 286.095 30.9041C285.319 30.9041 284.667 31.1008 284.139 31.4943C283.611 31.8823 283.212 32.4266 282.943 33.1272C282.673 33.8224 282.538 34.6335 282.538 35.5604ZM299.587 42.0275C298.466 42.0275 297.483 41.7607 296.637 41.2272C295.796 40.6936 295.138 39.9472 294.664 38.988C294.195 38.0287 293.961 36.9077 293.961 35.6251C293.961 34.3317 294.195 33.2026 294.664 32.238C295.138 31.2733 295.796 30.5242 296.637 29.9907C297.483 29.4571 298.466 29.1904 299.587 29.1904C300.708 29.1904 301.689 29.4571 302.53 29.9907C303.376 30.5242 304.033 31.2733 304.502 32.238C304.976 33.2026 305.214 34.3317 305.214 35.6251C305.214 36.9077 304.976 38.0287 304.502 38.988C304.033 39.9472 303.376 40.6936 302.53 41.2272C301.689 41.7607 300.708 42.0275 299.587 42.0275ZM299.587 40.3137C300.439 40.3137 301.139 40.0954 301.689 39.6589C302.239 39.2224 302.646 38.6484 302.91 37.9371C303.174 37.2257 303.306 36.455 303.306 35.6251C303.306 34.7952 303.174 34.0218 302.91 33.305C302.646 32.5883 302.239 32.0089 301.689 31.567C301.139 31.1251 300.439 30.9041 299.587 30.9041C298.736 30.9041 298.035 31.1251 297.485 31.567C296.936 32.0089 296.529 32.5883 296.265 33.305C296.001 34.0218 295.869 34.7952 295.869 35.6251C295.869 36.455 296.001 37.2257 296.265 37.9371C296.529 38.6484 296.936 39.2224 297.485 39.6589C298.035 40.0954 298.736 40.3137 299.587 40.3137ZM313.17 42.0275C312.049 42.0275 311.066 41.7607 310.22 41.2272C309.379 40.6936 308.721 39.9472 308.247 38.988C307.778 38.0287 307.544 36.9077 307.544 35.6251C307.544 34.3317 307.778 33.2026 308.247 32.238C308.721 31.2733 309.379 30.5242 310.22 29.9907C311.066 29.4571 312.049 29.1904 313.17 29.1904C314.291 29.1904 315.272 29.4571 316.113 29.9907C316.959 30.5242 317.616 31.2733 318.085 32.238C318.559 33.2026 318.796 34.3317 318.796 35.6251C318.796 36.9077 318.559 38.0287 318.085 38.988C317.616 39.9472 316.959 40.6936 316.113 41.2272C315.272 41.7607 314.291 42.0275 313.17 42.0275ZM313.17 40.3137C314.022 40.3137 314.722 40.0954 315.272 39.6589C315.822 39.2224 316.228 38.6484 316.493 37.9371C316.757 37.2257 316.889 36.455 316.889 35.6251C316.889 34.7952 316.757 34.0218 316.493 33.305C316.228 32.5883 315.822 32.0089 315.272 31.567C314.722 31.1251 314.022 30.9041 313.17 30.9041C312.319 30.9041 311.618 31.1251 311.068 31.567C310.519 32.0089 310.112 32.5883 309.848 33.305C309.584 34.0218 309.452 34.7952 309.452 35.6251C309.452 36.455 309.584 37.2257 309.848 37.9371C310.112 38.6484 310.519 39.2224 311.068 39.6589C311.618 40.0954 312.319 40.3137 313.17 40.3137ZM323.487 37.2419L323.455 34.8814H323.843L329.275 29.352H331.636L325.848 35.2047H325.686L323.487 37.2419ZM321.709 41.7688V25.2131H323.616V41.7688H321.709ZM329.598 41.7688L324.748 35.6251L326.106 34.2993L332.024 41.7688H329.598Z" fill="#656565"/>
</svg>
