<svg width="334" height="67" viewBox="0 0 334 67" fill="none" xmlns="http://www.w3.org/2000/svg">
<rect x="1.64399" y="1.21186" width="331.089" height="64.1138" rx="13.5162" stroke="#CCCCCC" stroke-width="1.42275"/>
<path d="M59.2658 31.1347H48.1209V35.5216H54.6419C54.5233 36.5886 53.8119 38.2485 52.2706 39.3156C51.3221 40.027 49.8994 40.5012 48.1209 40.5012C45.0383 40.5012 42.3113 38.4856 41.3628 35.5216C41.1257 34.8102 41.0072 33.9803 41.0072 33.1503C41.0072 32.3204 41.1257 31.4904 41.3628 30.7791C41.4814 30.5419 41.4814 30.3048 41.6 30.1862C42.667 27.6964 45.1569 25.918 48.1209 25.918C50.3736 25.918 51.7964 26.8665 52.7449 27.6964L56.0646 24.3767C54.0491 22.5982 51.3221 21.4126 48.1209 21.4126C43.497 21.4126 39.4658 24.021 37.5688 27.9336C36.7389 29.5934 36.2646 31.3719 36.2646 33.2689C36.2646 35.1659 36.7389 36.9443 37.5688 38.6042C39.4658 42.5168 43.497 45.1252 48.1209 45.1252C51.3221 45.1252 54.0491 44.0581 55.9461 42.2796C58.1988 40.2641 59.5029 37.1814 59.5029 33.506C59.5029 32.5575 59.3844 31.8461 59.2658 31.1347Z" stroke="#0A65CC" stroke-width="2.13413" stroke-miterlimit="10" stroke-linecap="round" stroke-linejoin="round"/>
<path d="M98.7794 29.352C98.6824 28.5329 98.289 27.897 97.5991 27.4443C96.9093 26.9916 96.0632 26.7652 95.0608 26.7652C94.3279 26.7652 93.6866 26.8838 93.1369 27.1209C92.5926 27.358 92.1668 27.6841 91.8596 28.099C91.5578 28.514 91.4069 28.9856 91.4069 29.5137C91.4069 29.9556 91.512 30.3356 91.7222 30.6535C91.9378 30.9661 92.2126 31.2275 92.5467 31.4377C92.8809 31.6425 93.2312 31.8122 93.5976 31.9469C93.9641 32.0763 94.3009 32.1814 94.6081 32.2622L96.2896 32.7149C96.7207 32.8281 97.2003 32.9844 97.7285 33.1838C98.262 33.3832 98.7713 33.6553 99.2563 34.0002C99.7467 34.3398 100.151 34.7763 100.469 35.3098C100.787 35.8434 100.946 36.4981 100.946 37.2742C100.946 38.1688 100.711 38.9772 100.243 39.6993C99.7791 40.4215 99.1 40.9954 98.2054 41.4212C97.3162 41.8469 96.2357 42.0598 94.9638 42.0598C93.7782 42.0598 92.7515 41.8685 91.8839 41.4859C91.0216 41.1032 90.3426 40.5697 89.8467 39.8853C89.3563 39.2008 89.0788 38.4059 89.0141 37.5005H91.0836C91.1375 38.1257 91.3476 38.6431 91.7141 39.0526C92.086 39.4568 92.5548 39.7586 93.1207 39.958C93.692 40.152 94.3063 40.249 94.9638 40.249C95.7291 40.249 96.4162 40.1251 97.0252 39.8772C97.6342 39.6239 98.1165 39.2736 98.4722 38.8263C98.8279 38.3736 99.0057 37.8454 99.0057 37.2419C99.0057 36.6922 98.8521 36.2449 98.5449 35.8999C98.2378 35.555 97.8336 35.2748 97.3324 35.0592C96.8312 34.8437 96.2896 34.655 95.7075 34.4934L93.6704 33.9113C92.377 33.5395 91.353 33.0086 90.5985 32.3188C89.8441 31.629 89.4668 30.7263 89.4668 29.6107C89.4668 28.6838 89.7174 27.8754 90.2186 27.1856C90.7252 26.4904 91.4042 25.9514 92.2557 25.5688C93.1126 25.1808 94.0692 24.9868 95.1255 24.9868C96.1926 24.9868 97.1411 25.1781 97.971 25.5607C98.8009 25.938 99.4584 26.4553 99.9434 27.1128C100.434 27.7703 100.693 28.5167 100.719 29.352H98.7794ZM103.983 41.7688V29.352H105.891V41.7688H103.983ZM104.953 27.2826C104.582 27.2826 104.261 27.1559 103.991 26.9026C103.727 26.6493 103.595 26.3449 103.595 25.9892C103.595 25.6335 103.727 25.329 103.991 25.0757C104.261 24.8224 104.582 24.6958 104.953 24.6958C105.325 24.6958 105.643 24.8224 105.907 25.0757C106.177 25.329 106.311 25.6335 106.311 25.9892C106.311 26.3449 106.177 26.6493 105.907 26.9026C105.643 27.1559 105.325 27.2826 104.953 27.2826ZM114.397 46.6838C113.476 46.6838 112.684 46.5652 112.021 46.3281C111.358 46.0963 110.805 45.7892 110.363 45.4065C109.927 45.0293 109.579 44.6251 109.321 44.1939L110.84 43.1269C111.013 43.3532 111.231 43.6119 111.495 43.9029C111.759 44.1993 112.12 44.4553 112.578 44.6709C113.042 44.8919 113.648 45.0023 114.397 45.0023C115.4 45.0023 116.227 44.7598 116.879 44.2748C117.531 43.7898 117.857 43.0299 117.857 41.9951V39.473H117.696C117.555 39.6993 117.356 39.9796 117.097 40.3137C116.844 40.6425 116.478 40.9362 115.998 41.1948C115.524 41.4481 114.882 41.5748 114.074 41.5748C113.072 41.5748 112.172 41.3377 111.374 40.8634C110.582 40.3892 109.954 39.6993 109.49 38.794C109.032 37.8886 108.803 36.7892 108.803 35.4957C108.803 34.2239 109.027 33.1164 109.474 32.1733C109.922 31.2248 110.544 30.4919 111.342 29.9745C112.139 29.4517 113.061 29.1904 114.106 29.1904C114.915 29.1904 115.556 29.3251 116.03 29.5946C116.51 29.8586 116.876 30.1604 117.13 30.4999C117.388 30.8341 117.588 31.1089 117.728 31.3245H117.922V29.352H119.765V42.1245C119.765 43.1916 119.522 44.0592 119.037 44.7275C118.558 45.4011 117.911 45.8942 117.097 46.2068C116.289 46.5248 115.389 46.6838 114.397 46.6838ZM114.333 39.861C115.098 39.861 115.745 39.6859 116.273 39.3356C116.801 38.9853 117.202 38.4814 117.477 37.8239C117.752 37.1664 117.89 36.3796 117.89 35.4634C117.89 34.5688 117.755 33.7793 117.485 33.0949C117.216 32.4104 116.817 31.8742 116.289 31.4862C115.761 31.0981 115.109 30.9041 114.333 30.9041C113.524 30.9041 112.851 31.1089 112.312 31.5185C111.778 31.9281 111.377 32.4778 111.107 33.1676C110.843 33.8574 110.711 34.6227 110.711 35.4634C110.711 36.3257 110.846 37.0883 111.115 37.7511C111.39 38.4086 111.794 38.926 112.328 39.3032C112.867 39.6751 113.535 39.861 114.333 39.861ZM125.165 34.2993V41.7688H123.257V29.352H125.1V31.2922H125.262C125.553 30.6616 125.995 30.155 126.588 29.7724C127.181 29.3844 127.946 29.1904 128.884 29.1904C129.724 29.1904 130.46 29.3628 131.09 29.7077C131.721 30.0473 132.211 30.5646 132.562 31.2598C132.912 31.9496 133.087 32.8227 133.087 33.879V41.7688H131.179V34.0083C131.179 33.0329 130.926 32.273 130.419 31.7287C129.913 31.179 129.218 30.9041 128.334 30.9041C127.725 30.9041 127.181 31.0362 126.701 31.3002C126.227 31.5643 125.852 31.9496 125.577 32.4562C125.302 32.9628 125.165 33.5772 125.165 34.2993ZM150.801 36.6922V29.352H152.709V41.7688H150.801V39.667H150.671C150.38 40.2975 149.928 40.8338 149.313 41.2757C148.699 41.7122 147.923 41.9305 146.985 41.9305C146.209 41.9305 145.519 41.7607 144.916 41.4212C144.312 41.0763 143.838 40.5589 143.493 39.8691C143.148 39.1739 142.976 38.2981 142.976 37.2419V29.352H144.883V37.1125C144.883 38.0179 145.137 38.7401 145.643 39.279C146.155 39.8179 146.807 40.0874 147.6 40.0874C148.074 40.0874 148.556 39.9661 149.047 39.7236C149.542 39.4811 149.957 39.1092 150.292 38.608C150.631 38.1068 150.801 37.4682 150.801 36.6922ZM156.203 46.4251V29.352H158.046V31.3245H158.272C158.412 31.1089 158.606 30.8341 158.854 30.4999C159.108 30.1604 159.469 29.8586 159.938 29.5946C160.412 29.3251 161.053 29.1904 161.862 29.1904C162.907 29.1904 163.829 29.4517 164.626 29.9745C165.424 30.4973 166.046 31.2383 166.494 32.1975C166.941 33.1568 167.164 34.2886 167.164 35.5928C167.164 36.9077 166.941 38.0475 166.494 39.0122C166.046 39.9715 165.426 40.7152 164.634 41.2434C163.842 41.7661 162.929 42.0275 161.894 42.0275C161.096 42.0275 160.458 41.8954 159.978 41.6314C159.498 41.3619 159.129 41.0574 158.87 40.7179C158.612 40.373 158.412 40.0874 158.272 39.861H158.111V46.4251H156.203ZM158.078 35.5604C158.078 36.4981 158.216 37.3254 158.491 38.0422C158.765 38.7535 159.167 39.3113 159.695 39.7155C160.223 40.1143 160.87 40.3137 161.635 40.3137C162.433 40.3137 163.098 40.1035 163.632 39.6832C164.171 39.2574 164.575 38.6862 164.844 37.9694C165.119 37.2472 165.257 36.4443 165.257 35.5604C165.257 34.6874 165.122 33.9005 164.853 33.1999C164.588 32.494 164.187 31.9362 163.648 31.5266C163.115 31.1116 162.444 30.9041 161.635 30.9041C160.859 30.9041 160.207 31.1008 159.679 31.4943C159.151 31.8823 158.752 32.4266 158.482 33.1272C158.213 33.8224 158.078 34.6335 158.078 35.5604ZM179.29 41.7688L175.507 29.352H177.512L180.196 38.8586H180.325L182.976 29.352H185.014L187.633 38.8263H187.762L190.446 29.352H192.451L188.667 41.7688H186.792L184.076 32.2299H183.882L181.166 41.7688H179.29ZM194.973 41.7688V29.352H196.881V41.7688H194.973ZM195.943 27.2826C195.571 27.2826 195.25 27.1559 194.981 26.9026C194.717 26.6493 194.585 26.3449 194.585 25.9892C194.585 25.6335 194.717 25.329 194.981 25.0757C195.25 24.8224 195.571 24.6958 195.943 24.6958C196.315 24.6958 196.633 24.8224 196.897 25.0757C197.166 25.329 197.301 25.6335 197.301 25.9892C197.301 26.3449 197.166 26.6493 196.897 26.9026C196.633 27.1559 196.315 27.2826 195.943 27.2826ZM205.775 29.352V30.9688H199.34V29.352H205.775ZM201.216 26.3772H203.123V38.2119C203.123 38.7508 203.202 39.155 203.358 39.4245C203.519 39.6886 203.724 39.8664 203.972 39.958C204.225 40.0442 204.492 40.0874 204.772 40.0874C204.983 40.0874 205.155 40.0766 205.29 40.055C205.425 40.0281 205.532 40.0065 205.613 39.9904L206.001 41.7041C205.872 41.7526 205.691 41.8011 205.46 41.8496C205.228 41.9035 204.934 41.9305 204.578 41.9305C204.04 41.9305 203.511 41.8146 202.994 41.5829C202.482 41.3511 202.056 40.9981 201.717 40.5239C201.383 40.0496 201.216 39.4514 201.216 38.7293V26.3772ZM210.819 34.2993V41.7688H208.911V25.2131H210.819V31.2922H210.981C211.272 30.6508 211.708 30.1416 212.29 29.7643C212.878 29.3817 213.659 29.1904 214.635 29.1904C215.481 29.1904 216.222 29.3601 216.858 29.6996C217.494 30.0338 217.987 30.5484 218.337 31.2437C218.693 31.9335 218.871 32.8119 218.871 33.879V41.7688H216.963V34.0083C216.963 33.0221 216.707 32.2595 216.195 31.7206C215.688 31.1763 214.985 30.9041 214.085 30.9041C213.46 30.9041 212.899 31.0362 212.404 31.3002C211.913 31.5643 211.525 31.9496 211.24 32.4562C210.959 32.9628 210.819 33.5772 210.819 34.2993ZM233.775 46.6838C232.854 46.6838 232.061 46.5652 231.399 46.3281C230.736 46.0963 230.183 45.7892 229.741 45.4065C229.305 45.0293 228.957 44.6251 228.699 44.1939L230.218 43.1269C230.391 43.3532 230.609 43.6119 230.873 43.9029C231.137 44.1993 231.498 44.4553 231.956 44.6709C232.42 44.8919 233.026 45.0023 233.775 45.0023C234.778 45.0023 235.605 44.7598 236.257 44.2748C236.909 43.7898 237.235 43.0299 237.235 41.9951V39.473H237.073C236.933 39.6993 236.734 39.9796 236.475 40.3137C236.222 40.6425 235.855 40.9362 235.376 41.1948C234.902 41.4481 234.26 41.5748 233.452 41.5748C232.449 41.5748 231.549 41.3377 230.752 40.8634C229.96 40.3892 229.332 39.6993 228.868 38.794C228.41 37.8886 228.181 36.7892 228.181 35.4957C228.181 34.2239 228.405 33.1164 228.852 32.1733C229.299 31.2248 229.922 30.4919 230.72 29.9745C231.517 29.4517 232.439 29.1904 233.484 29.1904C234.293 29.1904 234.934 29.3251 235.408 29.5946C235.888 29.8586 236.254 30.1604 236.508 30.4999C236.766 30.8341 236.966 31.1089 237.106 31.3245H237.3V29.352H239.143V42.1245C239.143 43.1916 238.9 44.0592 238.415 44.7275C237.936 45.4011 237.289 45.8942 236.475 46.2068C235.667 46.5248 234.767 46.6838 233.775 46.6838ZM233.711 39.861C234.476 39.861 235.123 39.6859 235.651 39.3356C236.179 38.9853 236.58 38.4814 236.855 37.8239C237.13 37.1664 237.267 36.3796 237.267 35.4634C237.267 34.5688 237.133 33.7793 236.863 33.0949C236.594 32.4104 236.195 31.8742 235.667 31.4862C235.139 31.0981 234.487 30.9041 233.711 30.9041C232.902 30.9041 232.229 31.1089 231.69 31.5185C231.156 31.9281 230.755 32.4778 230.485 33.1676C230.221 33.8574 230.089 34.6227 230.089 35.4634C230.089 36.3257 230.224 37.0883 230.493 37.7511C230.768 38.4086 231.172 38.926 231.706 39.3032C232.245 39.6751 232.913 39.861 233.711 39.861ZM247.679 42.0275C246.558 42.0275 245.575 41.7607 244.729 41.2272C243.888 40.6936 243.231 39.9472 242.756 38.988C242.287 38.0287 242.053 36.9077 242.053 35.6251C242.053 34.3317 242.287 33.2026 242.756 32.238C243.231 31.2733 243.888 30.5242 244.729 29.9907C245.575 29.4571 246.558 29.1904 247.679 29.1904C248.8 29.1904 249.781 29.4571 250.622 29.9907C251.468 30.5242 252.126 31.2733 252.594 32.238C253.069 33.2026 253.306 34.3317 253.306 35.6251C253.306 36.9077 253.069 38.0287 252.594 38.988C252.126 39.9472 251.468 40.6936 250.622 41.2272C249.781 41.7607 248.8 42.0275 247.679 42.0275ZM247.679 40.3137C248.531 40.3137 249.232 40.0954 249.781 39.6589C250.331 39.2224 250.738 38.6484 251.002 37.9371C251.266 37.2257 251.398 36.455 251.398 35.6251C251.398 34.7952 251.266 34.0218 251.002 33.305C250.738 32.5883 250.331 32.0089 249.781 31.567C249.232 31.1251 248.531 30.9041 247.679 30.9041C246.828 30.9041 246.127 31.1251 245.578 31.567C245.028 32.0089 244.621 32.5883 244.357 33.305C244.093 34.0218 243.961 34.7952 243.961 35.6251C243.961 36.455 244.093 37.2257 244.357 37.9371C244.621 38.6484 245.028 39.2224 245.578 39.6589C246.127 40.0954 246.828 40.3137 247.679 40.3137ZM261.262 42.0275C260.141 42.0275 259.158 41.7607 258.312 41.2272C257.471 40.6936 256.813 39.9472 256.339 38.988C255.87 38.0287 255.636 36.9077 255.636 35.6251C255.636 34.3317 255.87 33.2026 256.339 32.238C256.813 31.2733 257.471 30.5242 258.312 29.9907C259.158 29.4571 260.141 29.1904 261.262 29.1904C262.383 29.1904 263.364 29.4571 264.205 29.9907C265.051 30.5242 265.708 31.2733 266.177 32.238C266.651 33.2026 266.889 34.3317 266.889 35.6251C266.889 36.9077 266.651 38.0287 266.177 38.988C265.708 39.9472 265.051 40.6936 264.205 41.2272C263.364 41.7607 262.383 42.0275 261.262 42.0275ZM261.262 40.3137C262.114 40.3137 262.814 40.0954 263.364 39.6589C263.914 39.2224 264.321 38.6484 264.585 37.9371C264.849 37.2257 264.981 36.455 264.981 35.6251C264.981 34.7952 264.849 34.0218 264.585 33.305C264.321 32.5883 263.914 32.0089 263.364 31.567C262.814 31.1251 262.114 30.9041 261.262 30.9041C260.411 30.9041 259.71 31.1251 259.16 31.567C258.611 32.0089 258.204 32.5883 257.94 33.305C257.676 34.0218 257.544 34.7952 257.544 35.6251C257.544 36.455 257.676 37.2257 257.94 37.9371C258.204 38.6484 258.611 39.2224 259.16 39.6589C259.71 40.0954 260.411 40.3137 261.262 40.3137ZM274.813 46.6838C273.891 46.6838 273.099 46.5652 272.436 46.3281C271.773 46.0963 271.221 45.7892 270.779 45.4065C270.342 45.0293 269.995 44.6251 269.736 44.1939L271.256 43.1269C271.428 43.3532 271.647 43.6119 271.911 43.9029C272.175 44.1993 272.536 44.4553 272.994 44.6709C273.457 44.8919 274.064 45.0023 274.813 45.0023C275.815 45.0023 276.642 44.7598 277.295 44.2748C277.947 43.7898 278.273 43.0299 278.273 41.9951V39.473H278.111C277.971 39.6993 277.771 39.9796 277.513 40.3137C277.259 40.6425 276.893 40.9362 276.413 41.1948C275.939 41.4481 275.298 41.5748 274.489 41.5748C273.487 41.5748 272.587 41.3377 271.789 40.8634C270.997 40.3892 270.369 39.6993 269.906 38.794C269.448 37.8886 269.219 36.7892 269.219 35.4957C269.219 34.2239 269.442 33.1164 269.89 32.1733C270.337 31.2248 270.959 30.4919 271.757 29.9745C272.555 29.4517 273.476 29.1904 274.522 29.1904C275.33 29.1904 275.971 29.3251 276.446 29.5946C276.925 29.8586 277.292 30.1604 277.545 30.4999C277.804 30.8341 278.003 31.1089 278.143 31.3245H278.337V29.352H280.18V42.1245C280.18 43.1916 279.938 44.0592 279.453 44.7275C278.973 45.4011 278.327 45.8942 277.513 46.2068C276.704 46.5248 275.804 46.6838 274.813 46.6838ZM274.748 39.861C275.513 39.861 276.16 39.6859 276.688 39.3356C277.216 38.9853 277.618 38.4814 277.893 37.8239C278.168 37.1664 278.305 36.3796 278.305 35.4634C278.305 34.5688 278.17 33.7793 277.901 33.0949C277.631 32.4104 277.233 31.8742 276.704 31.4862C276.176 31.0981 275.524 30.9041 274.748 30.9041C273.94 30.9041 273.266 31.1089 272.727 31.5185C272.194 31.9281 271.792 32.4778 271.523 33.1676C271.259 33.8574 271.127 34.6227 271.127 35.4634C271.127 36.3257 271.261 37.0883 271.531 37.7511C271.806 38.4086 272.21 38.926 272.743 39.3032C273.282 39.6751 273.95 39.861 274.748 39.861ZM285.58 25.2131V41.7688H283.673V25.2131H285.58ZM294.281 42.0275C293.084 42.0275 292.052 41.7634 291.185 41.2353C290.322 40.7017 289.657 39.958 289.188 39.0041C288.724 38.0448 288.493 36.9293 288.493 35.6574C288.493 34.3856 288.724 33.2646 289.188 32.2946C289.657 31.3191 290.309 30.5592 291.144 30.0149C291.985 29.4652 292.966 29.1904 294.087 29.1904C294.733 29.1904 295.372 29.2982 296.002 29.5137C296.633 29.7293 297.207 30.0796 297.724 30.5646C298.242 31.0443 298.654 31.6802 298.961 32.4724C299.268 33.2646 299.422 34.2401 299.422 35.3987V36.2071H289.851V34.558H297.482C297.482 33.8574 297.342 33.2323 297.061 32.6826C296.787 32.1329 296.393 31.699 295.881 31.3811C295.375 31.0631 294.776 30.9041 294.087 30.9041C293.327 30.9041 292.669 31.0928 292.114 31.47C291.564 31.8419 291.141 32.3269 290.845 32.9251C290.549 33.5233 290.4 34.1646 290.4 34.849V35.9484C290.4 36.8862 290.562 37.6811 290.885 38.3332C291.214 38.9799 291.67 39.473 292.252 39.8125C292.834 40.1466 293.51 40.3137 294.281 40.3137C294.782 40.3137 295.235 40.2437 295.639 40.1035C296.048 39.958 296.401 39.7425 296.698 39.4568C296.994 39.1658 297.223 38.8047 297.385 38.3736L299.228 38.891C299.034 39.5161 298.708 40.0658 298.25 40.5401C297.792 41.0089 297.226 41.3754 296.552 41.6395C295.879 41.8981 295.121 42.0275 294.281 42.0275Z" fill="#656565"/>
</svg>
