<svg width="23" height="22" viewBox="0 0 23 22" fill="none" xmlns="http://www.w3.org/2000/svg">
<path d="M10.5731 1.18603C11.0486 0.222696 12.4223 0.222697 12.8978 1.18603L15.3283 6.10993C15.517 6.49212 15.8815 6.75715 16.3032 6.8188L21.7405 7.61354C22.8033 7.76888 23.2269 9.0753 22.4575 9.82474L18.5251 13.6549C18.2194 13.9527 18.0798 14.3819 18.152 14.8026L19.0797 20.212C19.2614 21.2709 18.1498 22.0785 17.1988 21.5784L12.3388 19.0225C11.9611 18.8239 11.5099 18.8239 11.1321 19.0225L6.27218 21.5784C5.32121 22.0785 4.20962 21.2709 4.39124 20.212L5.31902 14.8026C5.39117 14.3819 5.25161 13.9527 4.94586 13.6549L1.0135 9.82474C0.244055 9.0753 0.667647 7.76888 1.73046 7.61354L7.16776 6.8188C7.5895 6.75715 7.95399 6.49212 8.14264 6.10993L10.5731 1.18603Z" fill="#0A65CC"/>
</svg>
