<svg width="25" height="24" viewBox="0 0 25 24" fill="none" xmlns="http://www.w3.org/2000/svg">
<path d="M24.2544 12C24.2544 14.25 23.6244 16.38 22.5144 18.18C20.4444 21.66 16.6344 24 12.2544 24C9.22439 24 6.4644 22.89 4.3644 21C3.4344 20.22 2.6244 19.26 1.9944 18.18C0.8844 16.38 0.254395 14.25 0.254395 12C0.254395 5.37 5.62439 0 12.2544 0C15.8544 0 19.0644 1.58996 21.2544 4.07996C23.1144 6.20996 24.2544 8.97 24.2544 12Z" fill="#656565"/>
<path d="M7.57422 11.9986L10.5442 14.9686L16.9342 9.05859" fill="#656565"/>
<path d="M7.57422 11.9986L10.5442 14.9686L16.9342 9.05859" stroke="#FEFEFE" stroke-width="2" stroke-linecap="round" stroke-linejoin="round"/>
</svg>
