<svg width="23" height="19" viewBox="0 0 23 19" fill="none" xmlns="http://www.w3.org/2000/svg">
<path d="M22.6107 2.68938C21.806 3.04234 20.9487 3.27629 20.0548 3.38988C20.9744 2.84084 21.6762 1.97806 22.0062 0.938121C21.1488 1.4493 20.2022 1.81037 19.1934 2.01187C18.3793 1.14503 17.219 0.608154 15.9532 0.608154C13.4974 0.608154 11.5203 2.60148 11.5203 5.04513C11.5203 5.39673 11.55 5.73481 11.6231 6.05666C7.93527 5.8768 4.67211 4.10932 2.48 1.41684C2.09729 2.08083 1.87281 2.84084 1.87281 3.65899C1.87281 5.19523 2.66391 6.55702 3.84314 7.34543C3.13047 7.3319 2.43131 7.125 1.839 6.79909C1.839 6.81261 1.839 6.83019 1.839 6.84777C1.839 9.00338 3.37659 10.7939 5.3929 11.2063C5.03183 11.305 4.63831 11.3524 4.2299 11.3524C3.94592 11.3524 3.65922 11.3361 3.39011 11.2766C3.96485 13.0333 5.59575 14.3248 7.53498 14.3667C6.02579 15.5473 4.10955 16.2586 2.03508 16.2586C1.67131 16.2586 1.32241 16.2424 0.973511 16.1977C2.93844 17.4649 5.26714 18.1884 7.7784 18.1884C15.941 18.1884 20.4037 11.4267 20.4037 5.56577C20.4037 5.36968 20.3969 5.18036 20.3875 4.99239C21.2678 4.36761 22.0075 3.58732 22.6107 2.68938Z" fill="#767F8C"/>
</svg>
