<svg width="224" height="32" viewBox="0 0 224 32" fill="none" xmlns="http://www.w3.org/2000/svg">
<path d="M40.885 10.0936C39.3454 10.2857 38.6421 11.0252 38.6242 11.7167C38.6026 12.6316 39.8054 13.2241 41.2515 13.9364C43.4064 14.9978 46.1016 16.3254 46.0894 19.383C46.0689 23.3974 42.4041 26 36.8186 26C34.43 25.976 32.1309 25.5078 30.8879 24.9724L31.8495 20.7347L31.983 20.7926C33.204 21.3225 34.74 21.9891 37.3276 21.9544C38.8569 21.9304 40.5014 21.3613 40.5116 20.0624C40.5244 19.2101 39.8262 18.605 37.7496 17.6615C35.7343 16.7347 33.0567 15.1765 33.0848 12.3962C33.118 8.63145 36.8212 6 42.0895 6C44.1381 6 45.7953 6.42257 47.074 6.86194L46.1405 10.9556C43.7519 9.93037 41.6497 10 40.885 10.0936Z" fill="#1A1F71"/>
<path fill-rule="evenodd" clip-rule="evenodd" d="M53.0206 7.54901C53.3995 6.65899 54.2532 6.08789 55.2634 6.08789H59.7566L63.9997 25.9997H59.1201L58.4887 23.0255H51.7528L50.6566 25.9997H45.1279L53.0206 7.54901ZM56.0615 11.4678L53.2656 18.9464H57.635L56.0615 11.4678Z" fill="#1A1F71"/>
<path d="M26.3076 6.35742L21.9062 25.6948H27.2334L31.6296 6.35742H26.3076Z" fill="#1A1F71"/>
<path d="M13.198 19.641L18.4685 6.08789H23.7949L15.5902 25.9997H10.2346L6.19182 10.1078C5.95115 9.12881 5.73722 8.77032 4.99333 8.35498C3.77538 7.68499 1.76492 7.0595 0 6.66393L0.116689 6.08789H8.73224C9.8335 6.08789 10.8205 6.83205 11.066 8.11764L13.198 19.641Z" fill="#1A1F71"/>
<path fill-rule="evenodd" clip-rule="evenodd" d="M104.461 28.5791H119.231V3.4209H104.461V28.5791Z" fill="#FF5F00"/>
<path fill-rule="evenodd" clip-rule="evenodd" d="M105.745 16C105.745 10.896 108.131 6.35067 111.846 3.42089C109.129 1.27822 105.7 0 101.974 0C93.1518 0 86 7.16356 86 16C86 24.8364 93.1518 32 101.974 32C105.7 32 109.129 30.7218 111.846 28.5791C108.131 25.6493 105.745 21.1036 105.745 16Z" fill="#EB001B"/>
<path fill-rule="evenodd" clip-rule="evenodd" d="M137.692 16C137.692 24.8364 130.54 32 121.719 32C117.992 32 114.563 30.7218 111.846 28.5791C115.562 25.6493 117.947 21.1036 117.947 16C117.947 10.896 115.562 6.35067 111.846 3.42089C114.563 1.27822 117.992 0 121.719 0C130.54 0 137.692 7.16356 137.692 16Z" fill="#F79E1B"/>
<path fill-rule="evenodd" clip-rule="evenodd" d="M160 25V7H165.878C165.878 7 167.576 7 168.49 9.57143C170.841 16.3857 171.102 17.2857 171.102 17.2857C171.102 17.2857 171.624 15.6143 173.714 9.57143C174.629 7 176.327 7 176.327 7H182.204V25H176.327V15.3571H175.673L172.408 25H169.796L166.531 15.3571H165.878V25H160ZM205.714 15.3571V25H211.592V19.8571H216.816C219.69 19.8571 222.171 17.9286 222.955 15.3571H205.714ZM184.816 25V7H190.694V17.2857H191.347L195.918 8.28571C196.571 7.12857 197.878 7 197.878 7H203.102V25H197.224V14.7143H196.571L192 23.7143C191.347 25 190.041 25 190.041 25H184.816Z" fill="#006848"/>
<path d="M216.816 7H204.669C205.322 10.9857 209.241 14.7143 213.551 14.7143H223.216C223.347 14.3286 223.347 13.8143 223.347 13.4286C223.347 9.82857 220.474 7 216.816 7Z" fill="url(#paint0_linear_1619_1911)"/>
<defs>
<linearGradient id="paint0_linear_1619_1911" x1="223.347" y1="27.293" x2="204.784" y2="27.293" gradientUnits="userSpaceOnUse">
<stop stop-color="#1E5CD8"/>
<stop offset="1" stop-color="#02AFFF"/>
</linearGradient>
</defs>
</svg>
