<svg width="23" height="23" viewBox="0 0 23 23" fill="none" xmlns="http://www.w3.org/2000/svg">
<g clip-path="url(#clip0_957_13226)">
<path d="M21.6159 6.20389C21.3665 5.27698 20.6357 4.54634 19.709 4.29675C18.0157 3.83337 11.2429 3.83337 11.2429 3.83337C11.2429 3.83337 4.47029 3.83337 2.77708 4.27908C1.86817 4.52852 1.11954 5.27714 0.870106 6.20389C0.424561 7.89693 0.424561 11.4081 0.424561 11.4081C0.424561 11.4081 0.424561 14.937 0.870106 16.6124C1.1197 17.5391 1.85034 18.2699 2.77725 18.5195C4.48812 18.9829 11.2431 18.9829 11.2431 18.9829C11.2431 18.9829 18.0157 18.9829 19.709 18.5372C20.6359 18.2878 21.3665 17.557 21.6161 16.6302C22.0616 14.937 22.0616 11.426 22.0616 11.426C22.0616 11.426 22.0795 7.89693 21.6159 6.20389Z" fill="#767F8C"/>
<path d="M9.08658 14.6521L14.7186 11.4083L9.08658 8.16455V14.6521Z" fill="#18191C"/>
</g>
<defs>
<clipPath id="clip0_957_13226">
<rect width="21.6372" height="21.6372" fill="white" transform="translate(0.424622 0.57959)"/>
</clipPath>
</defs>
</svg>
