<svg width="29" height="29" viewBox="0 0 29 29" fill="none" xmlns="http://www.w3.org/2000/svg">
<path d="M15.5224 26.1271H6.03735C3.6661 26.1271 2.48047 24.9415 2.48047 22.5702V13.0852C2.48047 10.7139 3.6661 9.52832 6.03735 9.52832H11.9655V22.5702C11.9655 24.9415 13.1511 26.1271 15.5224 26.1271Z" stroke="#FEFEFE" stroke-width="2.13413" stroke-miterlimit="10" stroke-linecap="round" stroke-linejoin="round"/>
<path d="M12.0957 4.78613C12.0008 5.14182 11.9652 5.53308 11.9652 5.97176V9.52864H6.03711V7.15739C6.03711 5.8532 7.10417 4.78613 8.40837 4.78613H12.0957Z" stroke="#FEFEFE" stroke-width="2.13413" stroke-miterlimit="10" stroke-linecap="round" stroke-linejoin="round"/>
<path d="M16.708 9.52832V15.4565" stroke="#FEFEFE" stroke-width="2.13413" stroke-miterlimit="10" stroke-linecap="round" stroke-linejoin="round"/>
<path d="M21.4502 9.52832V15.4565" stroke="#FEFEFE" stroke-width="2.13413" stroke-miterlimit="10" stroke-linecap="round" stroke-linejoin="round"/>
<path d="M20.2649 20.1992H17.8936C17.2415 20.1992 16.708 20.7328 16.708 21.3848V26.1274H21.4505V21.3848C21.4505 20.7328 20.917 20.1992 20.2649 20.1992Z" stroke="#FEFEFE" stroke-width="2.13413" stroke-miterlimit="10" stroke-linecap="round" stroke-linejoin="round"/>
<path d="M7.22363 15.4565V20.1991" stroke="#FEFEFE" stroke-width="2.13413" stroke-miterlimit="10" stroke-linecap="round" stroke-linejoin="round"/>
<path d="M11.9658 22.5702V5.97143C11.9658 3.60018 13.1514 2.41455 15.5227 2.41455H22.6365C25.0077 2.41455 26.1934 3.60018 26.1934 5.97143V22.5702C26.1934 24.9415 25.0077 26.1271 22.6365 26.1271H15.5227C13.1514 26.1271 11.9658 24.9415 11.9658 22.5702Z" stroke="#FEFEFE" stroke-width="2.13413" stroke-miterlimit="10" stroke-linecap="round" stroke-linejoin="round"/>
</svg>
