<svg width="381" height="94" viewBox="0 0 381 94" fill="none" xmlns="http://www.w3.org/2000/svg">
<path d="M2.93765 42.0479V10.6691H9.57193V23.6159H23.0397V10.6691H29.6586V42.0479H23.0397V29.0857H9.57193V42.0479H2.93765ZM45.6391 42.5075C43.2592 42.5075 41.201 42.0019 39.4645 40.9907C37.7383 39.9692 36.4053 38.5494 35.4656 36.7312C34.5258 34.9028 34.056 32.7833 34.056 30.3727C34.056 27.9417 34.5258 25.8171 35.4656 23.9989C36.4053 22.1705 37.7383 20.7507 39.4645 19.7395C41.201 18.718 43.2592 18.2073 45.6391 18.2073C48.0191 18.2073 50.0722 18.718 51.7985 19.7395C53.5349 20.7507 54.873 22.1705 55.8127 23.9989C56.7525 25.8171 57.2223 27.9417 57.2223 30.3727C57.2223 32.7833 56.7525 34.9028 55.8127 36.7312C54.873 38.5494 53.5349 39.9692 51.7985 40.9907C50.0722 42.0019 48.0191 42.5075 45.6391 42.5075ZM45.6698 37.4513C46.7525 37.4513 47.6565 37.1449 48.3817 36.532C49.107 35.909 49.6534 35.0612 50.0211 33.9887C50.3991 32.9161 50.588 31.6955 50.588 30.3268C50.588 28.958 50.3991 27.7374 50.0211 26.6649C49.6534 25.5924 49.107 24.7446 48.3817 24.1215C47.6565 23.4984 46.7525 23.1869 45.6698 23.1869C44.5768 23.1869 43.6575 23.4984 42.9119 24.1215C42.1765 24.7446 41.6198 25.5924 41.2418 26.6649C40.8741 27.7374 40.6902 28.958 40.6902 30.3268C40.6902 31.6955 40.8741 32.9161 41.2418 33.9887C41.6198 35.0612 42.1765 35.909 42.9119 36.532C43.6575 37.1449 44.5768 37.4513 45.6698 37.4513ZM65.519 42.0479L59.1146 18.5138H65.7182L69.3648 34.3257H69.5793L73.379 18.5138H79.8601L83.7212 34.2338H83.9203L87.5056 18.5138H94.0939L87.7048 42.0479H80.7947L76.7498 27.2471H76.4587L72.4138 42.0479H65.519ZM107.562 18.5138H114.089V43.2123C114.089 45.0305 113.731 46.5014 113.016 47.6249C112.301 48.7485 111.275 49.5708 109.937 50.0917C108.609 50.6127 107.02 50.8731 105.172 50.8731C104.947 50.8731 104.732 50.868 104.528 50.8578C104.313 50.8578 104.089 50.8527 103.854 50.8425V45.7404C104.027 45.7506 104.181 45.7557 104.313 45.7557C104.436 45.7659 104.569 45.771 104.712 45.771C105.764 45.771 106.499 45.5463 106.918 45.0969C107.347 44.6576 107.562 43.9937 107.562 43.105V18.5138ZM110.81 15.4801C109.85 15.4801 109.022 15.1583 108.328 14.5148C107.633 13.8611 107.286 13.0797 107.286 12.1706C107.286 11.2717 107.633 10.5005 108.328 9.85702C109.022 9.20329 109.85 8.87643 110.81 8.87643C111.79 8.87643 112.623 9.20329 113.307 9.85702C114.002 10.5005 114.349 11.2717 114.349 12.1706C114.349 13.0797 114.002 13.8611 113.307 14.5148C112.623 15.1583 111.79 15.4801 110.81 15.4801ZM129.95 42.5075C127.571 42.5075 125.512 42.0019 123.776 40.9907C122.05 39.9692 120.717 38.5494 119.777 36.7312C118.837 34.9028 118.367 32.7833 118.367 30.3727C118.367 27.9417 118.837 25.8171 119.777 23.9989C120.717 22.1705 122.05 20.7507 123.776 19.7395C125.512 18.718 127.571 18.2073 129.95 18.2073C132.33 18.2073 134.384 18.718 136.11 19.7395C137.846 20.7507 139.184 22.1705 140.124 23.9989C141.064 25.8171 141.534 27.9417 141.534 30.3727C141.534 32.7833 141.064 34.9028 140.124 36.7312C139.184 38.5494 137.846 39.9692 136.11 40.9907C134.384 42.0019 132.33 42.5075 129.95 42.5075ZM129.981 37.4513C131.064 37.4513 131.968 37.1449 132.693 36.532C133.418 35.909 133.965 35.0612 134.332 33.9887C134.71 32.9161 134.899 31.6955 134.899 30.3268C134.899 28.958 134.71 27.7374 134.332 26.6649C133.965 25.5924 133.418 24.7446 132.693 24.1215C131.968 23.4984 131.064 23.1869 129.981 23.1869C128.888 23.1869 127.969 23.4984 127.223 24.1215C126.488 24.7446 125.931 25.5924 125.553 26.6649C125.185 27.7374 125.002 28.958 125.002 30.3268C125.002 31.6955 125.185 32.9161 125.553 33.9887C125.931 35.0612 126.488 35.909 127.223 36.532C127.969 37.1449 128.888 37.4513 129.981 37.4513ZM145.9 42.0479V10.6691H152.427V22.4668H152.627C152.913 21.8335 153.326 21.1899 153.868 20.5362C154.419 19.8723 155.134 19.3207 156.013 18.8815C156.901 18.432 158.004 18.2073 159.322 18.2073C161.038 18.2073 162.621 18.6568 164.072 19.5556C165.522 20.4443 166.682 21.7875 167.55 23.5852C168.418 25.3728 168.852 27.6148 168.852 30.3114C168.852 32.9366 168.428 35.1531 167.581 36.9611C166.743 38.7588 165.599 40.1224 164.148 41.0519C162.708 41.9712 161.094 42.4309 159.307 42.4309C158.04 42.4309 156.963 42.2215 156.074 41.8027C155.196 41.3839 154.475 40.8579 153.914 40.2246C153.352 39.5811 152.923 38.9324 152.627 38.2787H152.335V42.0479H145.9ZM152.289 30.2808C152.289 31.6802 152.484 32.9008 152.872 33.9427C153.26 34.9846 153.822 35.7966 154.557 36.3788C155.293 36.9508 156.186 37.2368 157.238 37.2368C158.301 37.2368 159.2 36.9457 159.935 36.3635C160.67 35.7711 161.227 34.9539 161.605 33.912C161.993 32.86 162.187 31.6495 162.187 30.2808C162.187 28.9223 161.998 27.7272 161.62 26.6955C161.242 25.6639 160.686 24.8569 159.95 24.2747C159.215 23.6925 158.311 23.4014 157.238 23.4014C156.176 23.4014 155.277 23.6823 154.542 24.2441C153.817 24.8059 153.26 25.6026 152.872 26.6342C152.484 27.6659 152.289 28.8814 152.289 30.2808ZM173.207 50.8731V18.5138H179.643V22.4668H179.934C180.22 21.8335 180.633 21.1899 181.175 20.5362C181.726 19.8723 182.441 19.3207 183.32 18.8815C184.208 18.432 185.312 18.2073 186.629 18.2073C188.345 18.2073 189.928 18.6568 191.379 19.5556C192.829 20.4443 193.989 21.7875 194.857 23.5852C195.725 25.3728 196.159 27.6148 196.159 30.3114C196.159 32.9366 195.735 35.1531 194.888 36.9611C194.05 38.7588 192.906 40.1224 191.456 41.0519C190.015 41.9712 188.401 42.4309 186.614 42.4309C185.347 42.4309 184.27 42.2215 183.381 41.8027C182.503 41.3839 181.782 40.8579 181.221 40.2246C180.659 39.5811 180.23 38.9324 179.934 38.2787H179.734V50.8731H173.207ZM179.597 30.2808C179.597 31.6802 179.791 32.9008 180.179 33.9427C180.567 34.9846 181.129 35.7966 181.864 36.3788C182.6 36.9508 183.493 37.2368 184.545 37.2368C185.608 37.2368 186.507 36.9457 187.242 36.3635C187.977 35.7711 188.534 34.9539 188.912 33.912C189.3 32.86 189.494 31.6495 189.494 30.2808C189.494 28.9223 189.305 27.7272 188.927 26.6955C188.55 25.6639 187.993 24.8569 187.257 24.2747C186.522 23.6925 185.618 23.4014 184.545 23.4014C183.483 23.4014 182.584 23.6823 181.849 24.2441C181.124 24.8059 180.567 25.6026 180.179 26.6342C179.791 27.6659 179.597 28.8814 179.597 30.2808ZM200.511 42.0479V18.5138H207.038V42.0479H200.511ZM203.789 15.4801C202.819 15.4801 201.987 15.1583 201.292 14.5148C200.608 13.8611 200.265 13.0797 200.265 12.1706C200.265 11.2717 200.608 10.5005 201.292 9.85702C201.987 9.20329 202.819 8.87643 203.789 8.87643C204.76 8.87643 205.587 9.20329 206.272 9.85702C206.966 10.5005 207.313 11.2717 207.313 12.1706C207.313 13.0797 206.966 13.8611 206.272 14.5148C205.587 15.1583 204.76 15.4801 203.789 15.4801ZM218.793 10.6691V42.0479H212.266V10.6691H218.793ZM234.655 42.5075C232.275 42.5075 230.217 42.0019 228.48 40.9907C226.754 39.9692 225.421 38.5494 224.481 36.7312C223.542 34.9028 223.072 32.7833 223.072 30.3727C223.072 27.9417 223.542 25.8171 224.481 23.9989C225.421 22.1705 226.754 20.7507 228.48 19.7395C230.217 18.718 232.275 18.2073 234.655 18.2073C237.035 18.2073 239.088 18.718 240.814 19.7395C242.551 20.7507 243.889 22.1705 244.829 23.9989C245.768 25.8171 246.238 27.9417 246.238 30.3727C246.238 32.7833 245.768 34.9028 244.829 36.7312C243.889 38.5494 242.551 39.9692 240.814 40.9907C239.088 42.0019 237.035 42.5075 234.655 42.5075ZM234.686 37.4513C235.768 37.4513 236.672 37.1449 237.398 36.532C238.123 35.909 238.669 35.0612 239.037 33.9887C239.415 32.9161 239.604 31.6955 239.604 30.3268C239.604 28.958 239.415 27.7374 239.037 26.6649C238.669 25.5924 238.123 24.7446 237.398 24.1215C236.672 23.4984 235.768 23.1869 234.686 23.1869C233.593 23.1869 232.673 23.4984 231.928 24.1215C231.192 24.7446 230.636 25.5924 230.258 26.6649C229.89 27.7374 229.706 28.958 229.706 30.3268C229.706 31.6955 229.89 32.9161 230.258 33.9887C230.636 35.0612 231.192 35.909 231.928 36.532C232.673 37.1449 233.593 37.4513 234.686 37.4513ZM263 18.5138V23.4167H248.828V18.5138H263ZM252.045 12.8754H258.572V34.816C258.572 35.4187 258.664 35.8885 258.848 36.2256C259.032 36.5525 259.287 36.7823 259.614 36.9151C259.951 37.0479 260.339 37.1143 260.778 37.1143C261.085 37.1143 261.391 37.0887 261.698 37.0377C262.004 36.9764 262.239 36.9304 262.403 36.8998L263.429 41.7567C263.102 41.8589 262.643 41.9764 262.05 42.1091C261.458 42.2521 260.738 42.339 259.89 42.3696C258.317 42.4309 256.938 42.2215 255.753 41.7414C254.578 41.2613 253.664 40.5157 253.01 39.5045C252.357 38.4932 252.035 37.2164 252.045 35.674V12.8754ZM281.88 42.0479L275.476 18.5138H282.079L285.726 34.3257H285.94L289.74 18.5138H296.221L300.082 34.2338H300.282L303.867 18.5138H310.455L304.066 42.0479H297.156L293.111 27.2471H292.82L288.775 42.0479H281.88ZM323.98 42.5075C321.6 42.5075 319.542 42.0019 317.806 40.9907C316.079 39.9692 314.746 38.5494 313.807 36.7312C312.867 34.9028 312.397 32.7833 312.397 30.3727C312.397 27.9417 312.867 25.8171 313.807 23.9989C314.746 22.1705 316.079 20.7507 317.806 19.7395C319.542 18.718 321.6 18.2073 323.98 18.2073C326.36 18.2073 328.413 18.718 330.14 19.7395C331.876 20.7507 333.214 22.1705 334.154 23.9989C335.094 25.8171 335.564 27.9417 335.564 30.3727C335.564 32.7833 335.094 34.9028 334.154 36.7312C333.214 38.5494 331.876 39.9692 330.14 40.9907C328.413 42.0019 326.36 42.5075 323.98 42.5075ZM324.011 37.4513C325.094 37.4513 325.998 37.1449 326.723 36.532C327.448 35.909 327.995 35.0612 328.362 33.9887C328.74 32.9161 328.929 31.6955 328.929 30.3268C328.929 28.958 328.74 27.7374 328.362 26.6649C327.995 25.5924 327.448 24.7446 326.723 24.1215C325.998 23.4984 325.094 23.1869 324.011 23.1869C322.918 23.1869 321.999 23.4984 321.253 24.1215C320.518 24.7446 319.961 25.5924 319.583 26.6649C319.215 27.7374 319.031 28.958 319.031 30.3268C319.031 31.6955 319.215 32.9161 319.583 33.9887C319.961 35.0612 320.518 35.909 321.253 36.532C321.999 37.1449 322.918 37.4513 324.011 37.4513ZM339.808 42.0479V18.5138H346.135V22.62H346.381C346.81 21.1593 347.53 20.0561 348.541 19.3105C349.552 18.5546 350.717 18.1767 352.034 18.1767C352.361 18.1767 352.714 18.1971 353.092 18.238C353.469 18.2788 353.801 18.335 354.087 18.4065V24.1981C353.781 24.1062 353.357 24.0245 352.816 23.953C352.274 23.8815 351.779 23.8457 351.33 23.8457C350.369 23.8457 349.511 24.0551 348.755 24.4739C348.01 24.8825 347.417 25.4545 346.978 26.1899C346.549 26.9254 346.335 27.7732 346.335 28.7333V42.0479H339.808ZM363.376 35.2757L363.392 27.4463H364.341L371.88 18.5138H379.372L369.244 30.3421H367.697L363.376 35.2757ZM357.462 42.0479V10.6691H363.989V42.0479H357.462ZM372.171 42.0479L365.245 31.7977L369.597 27.1858L379.816 42.0479H372.171Z" fill="#18191C"/>
<rect x="119.09" y="80.0479" width="142" height="13" fill="#0A65CC"/>
</svg>
