<svg width="24" height="24" viewBox="0 0 24 24" fill="none" xmlns="http://www.w3.org/2000/svg">
<path fill-rule="evenodd" clip-rule="evenodd" d="M8.37526 7.93128C8.37526 5.93447 10.001 4.31042 12.0001 4.31042C13.9991 4.31042 15.6249 5.93447 15.6249 7.93128V9.73176H8.37526V7.93128ZM18.3435 9.73176H17.4373V7.93129C17.4373 4.93652 14.9987 2.5 12.0001 2.5C9.00145 2.5 6.56286 4.93652 6.56286 7.93129V9.73176H5.65666C4.90633 9.73176 4.29736 10.3398 4.29736 11.0898V20.142C4.29736 20.892 4.90633 21.5 5.65666 21.5H18.3435C19.0938 21.5 19.7028 20.892 19.7028 20.142V11.0898C19.7028 10.3398 19.0938 9.73176 18.3435 9.73176ZM12.9063 15.8172V17.8791C12.9063 18.3786 12.5003 18.7839 12.0001 18.7839C11.4989 18.7839 11.0939 18.3786 11.0939 17.8791V15.8172C10.5538 15.5041 10.1877 14.9269 10.1877 14.2583C10.1877 13.2585 10.9987 12.4479 12.0001 12.4479C13.0005 12.4479 13.8125 13.2585 13.8125 14.2583C13.8125 14.9269 13.4455 15.5041 12.9063 15.8172Z" fill="#667483"/>
</svg>
